<?xml version="1.0" encoding="UTF-8" standalone="no"?>
<!DOCTYPE svg PUBLIC "-//W3C//DTD SVG 1.1//EN" "http://www.w3.org/Graphics/SVG/1.1/DTD/svg11.dtd">
<svg width="100%" height="100%" viewBox="0 0 512 512" version="1.1" xmlns="http://www.w3.org/2000/svg" xmlns:xlink="http://www.w3.org/1999/xlink" xml:space="preserve" xmlns:serif="http://www.serif.com/" style="fill-rule:evenodd;clip-rule:evenodd;stroke-linejoin:round;stroke-miterlimit:2;">
    <g transform="matrix(1.473895,0,0,1.532063,35.227455,38.959417)">
        <rect x="-23.901" y="-25.429" width="347.379" height="334.19" style="fill:rgb(35,37,52);"/>
    </g>
    <g id="Pfad_1358" transform="matrix(0.954167,0,0,0.954167,-612.132103,-46.029182)">
        <path d="M614.411,242.843C614.411,242.843 712.874,210.535 762.884,177.73C812.894,144.925 862.904,123.719 905.325,133.493C947.746,143.267 1023.053,181.044 1076.955,200.76C1130.857,220.476 1310.567,239.192 1310.567,239.192L614.411,242.843Z" style="fill:rgb(0,208,35);fill-opacity:0.67;fill-rule:nonzero;"/>
    </g>
    <g id="Pfad_1359" transform="matrix(0.954167,0,0,0.954167,-612.132103,-46.029182)">
        <path d="M614.411,242.842C614.411,242.842 697.811,323.129 747.82,406.042C797.829,488.955 851.926,530.127 914.8,508.899C977.674,487.671 987,405.899 1086.134,429.831C1185.268,453.763 1312.022,242.841 1312.022,242.841L614.411,242.842Z" style="fill:rgb(166,183,218);fill-opacity:0.71;fill-rule:nonzero;"/>
    </g>
    <g id="Pfad_1360" transform="matrix(0.954167,0,0,0.954167,-612.132103,-46.029182)">
        <path d="M614.411,252.14L1312.022,242.843C1312.022,242.843 1210.533,291.975 1125.6,324.078C991.386,374.81 862.5,347.458 785.879,324.078C709.258,300.699 614.411,252.14 614.411,252.14Z" style="fill:rgb(255,121,75);fill-opacity:0.67;fill-rule:nonzero;"/>
    </g>
    <g id="Pfad_1360-5" transform="matrix(0.954167,0,0,0.954167,-612.132103,-46.029182)">
        <path d="M614.411,242.843L1292.777,240.945C1292.777,240.945 1137.237,289.556 1049.636,302.063C962.035,314.57 883.383,317.01 806.762,304.765C730.141,292.521 614.411,242.843 614.411,242.843Z" style="fill:rgb(0,34,255);fill-opacity:0.44;fill-rule:nonzero;"/>
    </g>
    <g id="Pfad_1360-7" transform="matrix(0.954167,0,0,0.954167,-612.132103,-46.029182)">
        <path d="M614.411,242.843L1312.022,242.843C1312.022,242.843 1264.154,240.656 1177.86,257.405C1104.077,271.725 1028.456,275.646 1028.456,275.646C1028.456,275.646 960.875,278.847 920.036,279.135C789.958,280.053 614.411,242.843 614.411,242.843Z" style="fill-opacity:0.67;fill-rule:nonzero;"/>
    </g>
    <g id="Linie_1" transform="matrix(0.954167,0,0,0.954167,-612.132103,-46.029182)">
        <path d="M0.5,242.5L1920.5,242.5" style="fill:none;fill-rule:nonzero;"/>
    </g>
</svg>
