<?xml version="1.0" encoding="UTF-8" standalone="no"?>
<svg
   width="674.02734"
   height="767.63354"
   viewBox="0 0 674.02734 767.63354"
   version="1.1"
   id="svg4"
   sodipodi:docname="E1-2.svg"
   inkscape:version="1.3 (0e150ed6c4, 2023-07-21)"
   inkscape:export-filename="..\..\Website\HG-website\svg\E1-2.svg"
   inkscape:export-xdpi="96"
   inkscape:export-ydpi="96"
   xmlns:inkscape="http://www.inkscape.org/namespaces/inkscape"
   xmlns:sodipodi="http://sodipodi.sourceforge.net/DTD/sodipodi-0.dtd"
   xmlns="http://www.w3.org/2000/svg"
   xmlns:svg="http://www.w3.org/2000/svg">
  <sodipodi:namedview
     id="namedview4"
     pagecolor="#505050"
     bordercolor="#eeeeee"
     borderopacity="1"
     inkscape:showpageshadow="0"
     inkscape:pageopacity="0"
     inkscape:pagecheckerboard="0"
     inkscape:deskcolor="#d1d1d1"
     inkscape:zoom="0.70710678"
     inkscape:cx="456.08387"
     inkscape:cy="516.89506"
     inkscape:window-width="1920"
     inkscape:window-height="1008"
     inkscape:window-x="1912"
     inkscape:window-y="-8"
     inkscape:window-maximized="1"
     inkscape:current-layer="svg4" />
  <defs
     id="defs2" />
  <ellipse
     id="Ellipse_25"
     data-name="Ellipse 25"
     cx="339.00562"
     cy="344.8197"
     rx="271.845"
     ry="334.77802"
     fill="#ffffff"
     style="display:inline" />
  <ellipse
     cx="339.00562"
     cy="344.8197"
     rx="271.845"
     ry="334.77802"
     stroke="none"
     id="ellipse3"
     style="display:inline;fill:#ffebff;fill-opacity:1;stroke:#42210b;stroke-opacity:0.4" />
  <path
     d="m 219.62695,336.63641 c -0.0183,0 -0.0364,0.002 -0.0547,0.002 l -0.008,1.37109 -3.10352,-0.19922 c 0,0 0.15928,-0.4311 0.36133,-1.02734 -1.24231,0.12877 -2.45829,0.34666 -3.64453,0.63867 0.21598,0.32788 0.39453,0.58789 0.39453,0.58789 l -2.51562,0.51953 -0.13477,-0.44336 c -10.58283,3.61894 -18.19505,13.64226 -18.19531,25.45117 -7.5e-4,14.85729 12.0431,26.90201 26.90039,26.90235 14.85805,7.4e-4 26.90308,-12.0443 26.90234,-26.90235 -2.3e-4,-10.23305 -5.71573,-19.13014 -14.12695,-23.67773 l -0.29297,0.41797 -2.75977,-0.69141 c 0,0 0.54709,-0.26419 1.19922,-0.63086 -1.91122,-0.85042 -3.93762,-1.48235 -6.05273,-1.86914 l -0.61914,1.26563 -3.07227,-0.44141 c 0,0 0.85026,-0.45467 1.7793,-1.10742 -0.97165,-0.10625 -1.95709,-0.16607 -2.95703,-0.16602 z m 3.11133,8.08789 c 3.09461,2.7e-4 5.60324,2.50891 5.60351,5.60352 8.1e-4,3.09538 -2.50814,5.6052 -5.60351,5.60547 -3.09538,-2.7e-4 -5.60433,-2.51009 -5.60352,-5.60547 2.7e-4,-3.09461 2.5089,-5.60325 5.60352,-5.60352 z"
     style="fill:#262100;fill-opacity:1"
     id="path253" />
  <path
     d="m 222.73829,344.7243 c -3.09464,2.7e-4 -5.60325,2.50891 -5.60352,5.60352 -8.1e-4,3.09538 2.50813,5.6052 5.60352,5.60547 3.09537,-2.7e-4 5.60432,-2.51009 5.60351,-5.60547 -2.7e-4,-3.09461 -2.50891,-5.60325 -5.60351,-5.60352 z"
     style="fill:#fffffe;fill-opacity:1"
     id="path252" />
  <path
     d="m 220.9375,330.69891 c -9.56535,-0.11237 -18.84473,3.25011 -28.9082,8.1836 -21.18296,10.38298 -16.53743,28.23622 -37.65039,31.19922 -2.18599,0.307 -13.43218,0.0482 -13.45118,1.24218 -0.025,1.546 11.26742,3.23105 15.56641,3.87305 0.53699,0.08 3.54134,0.52933 4.61132,0.61133 11.98198,0.924 19.43124,-19.77919 35.40821,-30.20117 16.79996,-10.95498 30.99324,-3.98919 37.11523,-2.24219 10.15898,2.89999 11.27743,7.77523 29.52539,20.4082 23.55295,16.30597 30.90904,11.31852 31.95703,10.97852 1.092,-0.359 0.12114,-1.40619 -0.006,-2.24219 -0.26099,-1.725 -6.4284,-0.5111 -10.90039,-3.12109 -8.42197,-4.91199 -2.80665,-1.40149 -16.14062,-11.23047 -9.29998,-6.85099 -11.06301,-10.43998 -16.5,-14.79297 -11.20898,-8.96698 -21.0616,-12.55364 -30.62696,-12.66602 z"
     style="fill:#262100;fill-opacity:1"
     id="path234" />
  <path
     d="m 218.02343,312.91766 c -1.63071,-0.0135 -3.26089,0.0648 -4.88281,0.23438 -9.14607,0.98977 -18.00337,3.7917 -26.05469,8.24219 -5.70354,3.23309 -10.84729,7.36643 -15.23242,12.24023 -4.37896,4.8304 -8.08443,10.23093 -11.01562,16.05469 -0.01,0.0205 -0.0109,0.0418 -0.0195,0.0625 0.0106,0.005 1.57865,0.7525 2.6836,1.30664 0.0152,-0.0269 0.0372,-0.0481 0.0508,-0.0762 1.03219,-2.03222 2.16363,-4.01052 3.38476,-5.92969 l -0.39648,-0.20703 -0.94336,-1.31641 c 0,0 0.94842,0.55055 1.69336,0.97852 2.0241,-3.11742 4.28865,-6.07587 6.7832,-8.8418 0.99057,-1.08956 2.02243,-2.12265 3.07618,-3.125 l -0.19336,-0.43555 c 0,0 0.25832,0.225 0.33984,0.29493 2.60906,-2.46491 5.40997,-4.66242 8.39648,-6.5918 l -0.36132,-0.54492 c 0.17303,0.14313 0.32172,0.31067 0.48242,0.46679 7.95075,-5.10847 17.20603,-8.32881 27.68359,-9.58593 1.38899,-0.16606 2.78667,-0.24889 4.18555,-0.24805 4.92534,0 9.79355,1.00868 14.5,2.68164 0.003,-0.008 0.0391,-0.10937 0.0391,-0.10937 l -0.0293,0.11328 c 3.50763,1.24759 6.9252,2.86279 10.20704,4.71484 0.17164,-0.29039 0.62304,-1.02734 0.62304,-1.02734 l -0.42773,1.14062 c 3.06256,1.73982 5.98877,3.68802 8.77734,5.7168 0.11922,-0.15274 0.23146,-0.3104 0.35352,-0.46094 l -0.21875,0.56055 c 2.36376,1.72522 4.61161,3.49931 6.72851,5.27929 0.23012,-0.14595 0.45871,-0.29564 0.70508,-0.41406 l -0.32617,0.73438 c 5.59987,4.74191 10.25826,9.40376 13.50586,12.66992 l 1.20117,1.19922 c 1.41391,1.45585 3.57695,-0.70719 2.12109,-2.1211 -0.37066,-0.37399 -0.76936,-0.77322 -1.19336,-1.19921 -5.14998,-5.18299 -13.76724,-13.85102 -24.44921,-21 -5.39159,-3.70045 -11.24056,-6.68567 -17.40039,-8.88086 -4.61277,-1.66325 -9.47367,-2.53426 -14.37696,-2.57618 z m -57.20703,36.83789 c -0.40651,0.97808 0.30242,2.071 1.37695,2.07227 0.3166,0.002 0.61359,-0.10309 0.86329,-0.27734 l -1.0586,-0.46289 z"
     style="fill:#262100;fill-opacity:1"
     id="path251" />
  <path
     d="m 307.73046,470.2868 c -9.78399,0 -14.72312,4.69107 -12.45312,8.16407 5.33699,8.16399 12.86069,2.3865 18.6797,3.0625 5.81898,0.676 14.23109,4.08154 15.12108,3.06054 0.889,-1.01999 -11.56367,-14.28711 -21.34766,-14.28711 z"
     style="fill:#262100;fill-opacity:1;opacity:0.9"
     id="path277" />
  <path
     d="m 392.63612,279.90196 c -6.8173,5.91599 -18.63631,14.41515 -12.8174,21.51514 4.82001,5.87999 17.1424,0.7049 24.379,-3.49004 7.2366,-4.19494 6.0321,-8.4494 17.70351,-14.664 11.6712,-6.2146 40.6962,-6.96912 78.1194,-1.48134 18.2834,2.68109 37.9602,11.9353 50.8477,16.70087 11.2611,4.16413 17.1574,-8.71905 7.1051,-18.29425 -10.5833,-10.08101 -99.3716,-18.95496 -124.4256,-15.90259 -25.054,3.05237 -34.0944,9.70022 -40.91171,15.61621 z"
     style="fill:#e6b9cf;fill-opacity:1"
     id="path181"
     sodipodi:nodetypes="zczzssszz" />
  <path
     d="m 457.33403,336.63641 a 26.900999,26.900999 0 0 0 -26.9004,26.90039 26.900999,26.900999 0 0 0 26.9004,26.90235 26.900999,26.900999 0 0 0 26.9004,-26.90235 26.900999,26.900999 0 0 0 -26.9004,-26.90039 z"
     style="fill:#262100;fill-opacity:1"
     id="path274" />
  <path
     d="m 460.22263,344.7243 a 5.6040001,5.6040001 0 0 0 -5.6035,5.60352 5.6040001,5.6040001 0 0 0 5.6035,5.60547 5.6040001,5.6040001 0 0 0 5.6035,-5.60547 5.6040001,5.6040001 0 0 0 -5.6035,-5.60352 z"
     style="fill:#fffffe;fill-opacity:1"
     id="path231" />
  <path
     d="m 458.93753,312.90399 a 43.487,43.487 0 0 0 -14.375,2.57422 75.594,75.594 0 0 0 -17.4004,8.88086 c -10.683,7.15399 -19.30221,15.82101 -24.4512,21 -0.424,0.42933 -0.8207,0.83051 -1.1914,1.20117 a 1.5,1.5 0 1 0 2.12109,2.1211 c 0.37401,-0.37134 0.77321,-0.77251 1.19921,-1.20118 9.624,-9.67599 31.42149,-31.59961 54.43949,-31.59961 a 35.1,35.1 0 0 1 4.18361,0.24805 c 16.1459,1.938 29.4108,8.5055 39.4257,19.52149 a 70.569,70.569 0 0 1 10.5215,15.3164 1.5,1.5 0 0 0 1.3575,0.86133 v -0.0137 a 1.5,1.5 0 0 0 1.3555,-2.13867 72.26,72.26 0 0 0 -11.0156,-16.05664 60.851,60.851 0 0 0 -15.2325,-12.23829 69.262,69.262 0 0 0 -26.0547,-8.24414 43.487,43.487 0 0 0 -4.8847,-0.23242 z"
     style="fill:#262100;fill-opacity:1"
     id="path275" />
  <path
     d="m 320.94335,537.55243 c -0.34416,-0.002 -0.69997,0.0168 -1.06835,0.0606 -9.72741,0.9347 -19.3406,2.81534 -28.70313,5.61523 -12.73197,3.69499 -34.07812,4.17448 -34.07812,6.98047 0,2.80599 47.46671,5.58734 64.88868,9.86133 5.14338,1.2395 10.40117,1.94377 15.68944,2.10156 v 0.006 h 0.21095 l 0.21093,0.002 v -0.006 c 5.31848,-0.15694 10.60673,-0.86051 15.78125,-2.09961 17.52296,-4.27699 65.26363,-7.05724 65.26363,-9.86523 0,-2.80799 -21.47041,-3.28548 -34.2753,-6.98047 -9.41904,-2.8002 -19.08731,-4.68074 -28.86919,-5.61523 -5.92699,-0.697 -8.40035,4.83295 -18.11132,6.12695 -9.04686,-1.21312 -11.77703,-6.15167 -16.93947,-6.1875 z"
     style="fill:#fb0000;fill-opacity:0.572549;stroke-miterlimit:10"
     id="path183" />
  <path
     d="m 257.80468,556.08173 c -0.3869,-0.0106 -0.62856,0.0295 -0.71094,0.12695 -1.31799,1.559 16.04201,23.193 20,26 3.958,2.807 14.58648,13.48632 37.43946,17.07031 a 172.812,172.812 0 0 0 23.48047,2.10156 h 0.0937 0.11523 a 160.537,160.537 0 0 0 21.47858,-2.10937 83.5,83.5 0 0 0 39.43944,-17.0625 c 3.958,-2.807 21.318,-24.441 20,-26 -1.31799,-1.559 -43.66363,11.47911 -61.4746,14.28711 a 165.074,165.074 0 0 1 -19.54883,1.86719 165.045,165.045 0 0 1 -19.54687,-1.86719 c -16.69875,-2.6325 -54.96213,-14.25585 -60.76564,-14.41406 z"
     style="fill:#fb0000;fill-opacity:0.571709;stroke-miterlimit:10"
     id="path182" />
  <path
     d="m 369.23243,470.2868 c -9.78399,0 -22.23766,13.26712 -21.34766,14.28711 0.889,1.021 9.30309,-2.38454 15.12108,-3.06054 5.818,-0.676 13.34174,5.10149 18.67777,-3.0625 2.27,-3.473 -2.6672,-8.16407 -12.45119,-8.16407 z"
     style="fill:#262100;fill-opacity:1;opacity:0.9"
     id="path276" />
  <path
     d="M 344.60157,0.0075092 C 82.814825,-1.3924908 -4.9999999e-6,193.32478 -4.9999999e-6,405.67157 -4.9999999e-6,624.87135 23.863175,702.54912 90.537105,741.15009 c 7.675,4.44299 35.795355,17.54592 51.236335,4.21093 15.43999,11.93099 57.55073,25.96769 61.76172,21.05469 3.682,-4.29999 -32.35998,-70.9983 -41.91797,-90.11328 -6.30561,-12.61121 -40.44241,-96.42597 -43.05663,-223.67195 -0.67763,-32.98315 6.03948,-58.33084 9.67427,-98.58087 2.63287,-29.15506 1.15113,-82.9314 9.64798,-114.04796 17.58591,-64.40189 33.98627,-113.61847 87.61522,-142.029441 33.90431,-19.38626 47.74517,-10.41346 47.74517,-10.41346 l 34.06223,-29.27406 51.05231,18.41197 c 0,0 13.84185,-26.184 71.78679,4.51397 53.63,28.410971 87,55.000111 106,159.000001 44.675,244.53676 -14.6084,418.0548 -23.7324,436.30078 -9.558,19.11499 -45.601,85.81924 -41.918,90.11524 4.211,4.91299 46.3207,-9.12565 61.7617,-21.05664 15.44,13.33498 43.5594,0.23206 51.2344,-4.21094 66.6749,-38.59996 90.5371,-116.28173 90.5371,-335.47852 0,-208.19379 -79.6212,-399.4366708 -329.46092,-405.5136708 z"
     style="display:inline;fill:#e6b9cf;fill-opacity:1"
     id="path179"
     sodipodi:nodetypes="csccccssscccccsccccscc" />
  <path
     id="Pfad_578"
     data-name="Pfad 578"
     d="m 423.73263,349.86368 -10.45,-6 -1.552,-2.151 c 0,0 1.248,1.035 2.252,1.693 2.2,1.446 6.876,3.812 7.55,4.485 0.982,0.979 3.5,1.133 3.5,1.133 z"
     fill="#42210b"
     style="fill:#262100;fill-opacity:1" />
  <path
     id="Pfad_579"
     data-name="Pfad 579"
     d="m 432.66962,344.49568 -9.79299,-11.976 -1.11,-2.853 a 31.363,31.363 0 0 1 2.051,2.839 c 2.244,3.692 6.326,6.715 6.816,7.85 0.712,1.651 4.2,3.333 4.2,3.333 z"
     fill="#42210b"
     style="fill:#262100;fill-opacity:1" />
  <path
     id="Pfad_580"
     data-name="Pfad 580"
     d="m 414.90162,357.63768 -11.052,-6.071 -1.709,-1.63 c 0,0 1.452,0.8 2.415,1.48 2.822,1.988 6.828,3.279 7.54501,3.92 1.04099,0.933 4.192,1.468 4.192,1.468 z"
     fill="#42210b"
     style="fill:#262100;fill-opacity:1" />
  <path
     id="Pfad_581"
     data-name="Pfad 581"
     d="m 418.62763,353.35168 -10.05,-5.626 -1.549,-1.505 c 0,0 1.32,0.742 2.2,1.37 2.563,1.84 6.212,3.043 6.862,3.635 0.945,0.861 3.818,1.367 3.818,1.367 z"
     fill="#42210b"
     style="fill:#262100;fill-opacity:1" />
  <path
     id="Pfad_582"
     data-name="Pfad 582"
     d="m 441.38362,341.27668 -8.963,-12.808 -1.951,-5.2 c 0,0 1.017,1.747 1.951,3.217 2.05301,3.23 7.106,9.253 7.523,10.6 0.606,1.955 4.2,3.5 4.2,3.5 z"
     fill="#42210b"
     style="fill:#262100;fill-opacity:1" />
  <path
     id="Pfad_583"
     data-name="Pfad 583"
     d="m 449.61663,339.35168 -6.882,-14.065 -1.464,-5.818 c 0,0 0.753,2.156 1.48,3.783 1.6,3.576 5.412,10.06 5.61,11.5 0.289,2.1 4.327,4.159 4.327,4.159 z"
     fill="#42210b"
     style="fill:#262100;fill-opacity:1" />
  <path
     id="Pfad_584"
     data-name="Pfad 584"
     d="m 453.92862,339.00868 -0.1,-15.7 0.223,-6.092 a 7.125,7.125 0 0 1 0.508,2.765 c 0.072,3.929 1.59999,10.38 1.2,11.924 -0.577,2.247 1.272,6.913 1.272,6.913 z"
     fill="#42210b"
     style="fill:#262100;fill-opacity:1" />
  <path
     id="Pfad_585"
     data-name="Pfad 585"
     d="m 426.51363,346.90068 -11.05301,-9.764 -0.909,-2.045 a 6.986,6.986 0 0 1 1.881,1.325 c 2.21,2.1 6.9,6.349 7.524,7.286 0.909,1.363 4.232,2.293 4.232,2.293 z"
     fill="#42210b"
     style="fill:#262100;fill-opacity:1" />
  <path
     id="Pfad_586"
     data-name="Pfad 586"
     d="m 488.54063,349.00168 6.182,-3.905 5.409,-5.368 a 8.084,8.084 0 0 0 -1.733,1.145 48.406,48.406 0 0 0 -4.449,3.735 c -0.867,1.145 -6.819,4.28 -6.819,4.28 z"
     fill="#42210b"
     style="fill:#262100;fill-opacity:1" />
  <path
     id="Pfad_587"
     data-name="Pfad 587"
     d="m 476.54762,342.43768 6.633,-8.688 4.97601,-7.487 a 8.425,8.425 0 0 0 -1.73,1.957 c -1.964,2.935 -6.261,7.419 -6.711,8.673 -0.654,1.824 -4.326,4.892 -4.326,4.892 z"
     fill="#42210b"
     style="fill:#262100;fill-opacity:1" />
  <path
     id="Pfad_588"
     data-name="Pfad 588"
     d="m 469.97263,340.56168 6.641,-14.534 0.978,-3.52 a 7.61,7.61 0 0 0 -1.373,2.176 90.108,90.108 0 0 1 -4.423,9.072 c -1.225,1.784 -4.166,5.971 -4.166,5.971 z"
     fill="#42210b"
     style="fill:#262100;fill-opacity:1" />
  <path
     id="Pfad_589"
     data-name="Pfad 589"
     d="m 462.44062,339.52968 3.82,-12.539 1.9,-7.664 a 7.628,7.628 0 0 0 -1.17,2.5 c -1.066,3.646 -4.111,9.435 -4.14,10.928 -0.042,2.171 -2.926,6.254 -2.926,6.254 z"
     fill="#42210b"
     style="fill:#262100;fill-opacity:1" />
  <path
     id="Pfad_590"
     data-name="Pfad 590"
     d="m 484.14062,344.36468 11.482,-9.215 0.90901,-2.045 c 0,0 -1.982,1.692 -2.98701,2.65 -2.21,2.1 -5.479,3.909 -6.09999,4.846 -0.90901,1.363 -4.546,3.407 -4.546,3.407 z"
     fill="#42210b"
     style="fill:#262100;fill-opacity:1" />
  <path
     id="Pfad_591"
     data-name="Pfad 591"
     d="m 496.27463,351.42468 10.67699,-5.58 0.943,-1.316 c 0,0 -1.851,1.031 -2.8,1.619 -2.07999,1.294 -5.06,2.338 -5.673,2.931 -0.892,0.863 -4.209,2.049 -4.209,2.049 z"
     fill="#42210b"
     style="fill:#262100;fill-opacity:1" />
  <path
     id="Pfad_592"
     data-name="Pfad 592"
     d="m 503.18463,361.20868 7.251,-1.994 c 0,0 10.143,-3.255 7.154,-2.755 a 9.869,9.869 0 0 0 -3.626,1 c -2.816,1.049 -6.338,1.431 -7.251,1.994 -1.329,0.82 -4.557,1.056 -4.557,1.056 z"
     fill="#42210b"
     style="fill:#262100;fill-opacity:1" />
  <path
     id="Pfad_593"
     data-name="Pfad 593"
     d="m 499.59462,357.27768 11.90001,-5.191 1.19,-1.338 c 0,0 -2.072,0.968 -3.142,1.528 -2.35201,1.233 -5.58401,2.134 -6.31401,2.723 -1.06099,0.857 -4.664,1.885 -4.664,1.885 z"
     fill="#42210b"
     style="fill:#262100;fill-opacity:1" />
  <path
     d="m 261.76171,340.71259 c 0,0 -1.24794,1.03536 -2.25194,1.69336 -2.20499,1.44599 -6.87483,3.81137 -7.54883,4.48437 -0.982,0.979 -3.5,1.13281 -3.5,1.13281 l 1.29883,0.83985 10.45117,-6 z"
     style="fill:#262100;fill-opacity:1"
     id="path250" />
  <path
     d="m 251.72657,328.66571 c -0.73594,0.90769 -1.42061,1.85578 -2.05078,2.83984 -2.24401,3.692 -6.32642,6.71462 -6.81642,7.84961 -0.712,1.651 -4.19921,3.33399 -4.19921,3.33399 l 2.16405,0.80664 9.79297,-11.97656 z"
     style="fill:#262100;fill-opacity:1"
     id="path249" />
  <path
     d="m 271.35352,348.9372 c 0,0 -1.45303,0.79851 -2.41602,1.47851 -2.822,1.988 -6.82697,3.28088 -7.54296,3.92188 -1.04201,0.93299 -4.19336,1.46679 -4.19336,1.46679 l 1.39062,0.83399 11.05274,-6.07227 z"
     style="fill:#262100;fill-opacity:1"
     id="path248" />
  <path
     d="m 266.46484,345.2204 c 0,0 -1.32032,0.74309 -2.1953,1.37109 -2.563,1.84 -6.21133,3.04277 -6.86133,3.63477 -0.945,0.861 -3.81836,1.36719 -3.81836,1.36719 l 1.27539,0.75781 10.05078,-5.625 z"
     style="fill:#262100;fill-opacity:1"
     id="path247" />
  <path
     d="m 243.02343,322.26923 c 0,0 -1.01717,1.7468 -1.95117,3.21679 -2.052,3.23 -7.10644,9.25262 -7.52344,10.59961 -0.606,1.955 -4.19922,3.5 -4.19922,3.5 l 2.75977,0.69141 8.96289,-12.80859 z"
     style="fill:#262100;fill-opacity:1"
     id="path246" />
  <path
     d="m 232.22266,318.46845 c 0,0 -0.75347,2.1562 -1.48047,3.7832 -1.59999,3.57599 -5.41137,10.06 -5.60937,11.5 -0.289,2.09999 -4.32813,4.1582 -4.32813,4.1582 l 3.07227,0.44141 6.88086,-14.06446 z"
     style="fill:#262100;fill-opacity:1"
     id="path245" />
  <path
     d="m 219.44141,316.20868 c -0.35133,0.87898 -0.52396,1.81917 -0.50781,2.76562 -0.072,3.929 -1.60117,10.37984 -1.20117,11.92383 0.577,2.247 -1.27149,6.91211 -1.27149,6.91211 l 3.10352,0.19922 0.0996,-15.70117 z"
     style="fill:#262100;fill-opacity:1"
     id="path244" />
  <path
     d="m 258.94141,334.09149 c -0.69582,0.33445 -1.33138,0.78192 -1.88086,1.32422 -2.20999,2.1 -6.89944,6.35011 -7.52345,7.28711 -0.90899,1.363 -4.23242,2.29297 -4.23242,2.29297 l 1.67578,0.9043 11.05274,-9.76368 z"
     style="fill:#262100;fill-opacity:1"
     id="path243" />
  <path
     d="m 173.36132,338.72821 5.41016,5.36914 6.18164,3.9043 1.41017,-0.11328 c 0,0 -5.95332,-3.1343 -6.82033,-4.2793 -1.40691,-1.33341 -2.89266,-2.5811 -4.44921,-3.73633 -0.52589,-0.45437 -1.10816,-0.83905 -1.73243,-1.14453 z"
     style="fill:#262100;fill-opacity:1"
     id="path242" />
  <path
     d="m 185.33204,325.26337 4.97655,7.48633 6.63281,8.6875 1.15625,-0.65235 c 0,0 -3.67022,-3.06858 -4.32422,-4.89258 -0.45,-1.25399 -4.74694,-5.73688 -6.71094,-8.67187 -0.47157,-0.73834 -1.05541,-1.39862 -1.73045,-1.95703 z"
     style="fill:#262100;fill-opacity:1"
     id="path241" />
  <path
     d="m 195.90234,321.50751 0.97656,3.51953 6.64258,14.53516 2.3418,-0.83594 c 0,0 -2.94102,-4.18671 -4.16602,-5.97071 -1.64232,-2.93908 -3.11859,-5.96793 -4.42187,-9.07226 -0.3309,-0.79792 -0.79522,-1.53369 -1.37305,-2.17578 z"
     style="fill:#262100;fill-opacity:1"
     id="path240" />
  <path
     d="m 205.33593,318.32587 1.90039,7.66406 3.82032,12.53906 2.51563,-0.51953 c 0,0 -2.88378,-4.08291 -2.92579,-6.25391 -0.029,-1.49299 -3.07367,-7.28369 -4.13867,-10.92968 -0.23556,-0.89759 -0.63267,-1.74476 -1.17188,-2.5 z"
     style="fill:#262100;fill-opacity:1"
     id="path239" />
  <path
     d="m 176.95704,332.10516 0.91015,2.04493 11.48047,9.21484 1.24219,-0.35742 c 0,0 -3.63592,-2.04325 -4.54492,-3.40625 -0.621,-0.937 -3.88963,-2.74571 -6.09961,-4.84571 -1.005,-0.95799 -2.98828,-2.65039 -2.98828,-2.65039 z"
     style="fill:#262100;fill-opacity:1"
     id="path238" />
  <path
     d="m 165.59766,343.52899 0.94336,1.31641 10.67773,5.58008 1.0625,-0.29688 c 0,0 -3.31698,-1.18778 -4.20898,-2.05078 -0.61301,-0.593 -3.59384,-1.63569 -5.67383,-2.92969 -0.949,-0.588 -2.80078,-1.61914 -2.80078,-1.61914 z"
     style="fill:#262100;fill-opacity:1"
     id="path237" />
  <path
     d="m 155.49218,355.4079 c -1.34851,-0.0544 7.56641,2.80664 7.56641,2.80664 l 7.25,1.99414 1.0293,-0.69922 c 0,0 -3.22664,-0.23664 -4.55664,-1.05664 -0.913,-0.563 -4.43596,-0.94319 -7.25195,-1.99219 -1.13307,-0.56258 -2.36374,-0.90208 -3.625,-1 -0.18682,-0.0312 -0.32222,-0.0491 -0.41211,-0.0527 z"
     style="fill:#262100;fill-opacity:1"
     id="path236" />
  <path
     d="m 160.80859,349.74774 1.18945,1.33985 11.90039,5.18945 1.0293,-0.39258 c 0,0 -3.60306,-1.02777 -4.66405,-1.88476 -0.73,-0.589 -3.96051,-1.48966 -6.3125,-2.72266 -1.07001,-0.56 -3.14258,-1.5293 -3.14259,-1.5293 z"
     style="fill:#262100;fill-opacity:1"
     id="path235" />
  <path
     d="m 456.60542,330.69891 c -9.5639,0.11331 -19.4137,3.70026 -30.621,12.66602 -5.438,4.353 -7.2002,7.94199 -16.5,14.79297 -13.335,9.82898 -7.7216,6.31847 -16.1446,11.23047 -4.471,2.60998 -10.6374,1.39609 -10.8984,3.12109 h -0.01 c -0.122,0.836 -1.095,1.88319 0,2.24219 1.048,0.34 8.4031,5.32746 31.957,-10.97852 18.2469,-12.63296 19.3665,-17.5082 29.5254,-20.4082 6.122,-1.747 20.3153,-8.71279 37.1153,2.24219 15.976,10.42198 23.4262,31.12517 35.4082,30.20117 1.071,-0.082 4.0733,-0.53133 4.6113,-0.61133 4.298,-0.642 15.5895,-2.32705 15.5645,-3.87305 -0.019,-1.19398 -11.2643,-0.93518 -13.4493,-1.24218 -21.1138,-2.963 -16.4675,-20.81624 -37.6504,-31.19922 -10.0621,-4.93282 -19.3405,-8.295 -28.9042,-8.1836 z"
     style="fill:#262100;fill-opacity:1"
     id="path233" />
  <path
     d="m 284.74362,279.90197 c 6.8173,5.916 18.6363,14.4151 12.8174,21.5151 -4.82,5.88 -17.14239,0.7049 -24.379,-3.49 -7.2366,-4.1949 -6.0321,-8.4494 -17.7035,-14.664 -11.6712,-6.2146 -40.69619,-6.9691 -78.1194,-1.4813 -18.2834,2.681 -37.9602,11.9353 -50.8477,16.7008 -11.26115,4.1642 -17.15745,-8.719 -7.1051,-18.2942 10.5833,-10.081 99.3716,-18.955 124.4256,-15.9026 25.054,3.0524 34.0944,9.7002 40.9117,15.6162 z"
     style="fill:#e6b9cf;fill-opacity:1"
     id="path278"
     sodipodi:nodetypes="zczzssszz" />
  <path
     style="fill:#e6b9cf;fill-opacity:1;stroke:none;stroke-width:1.78901;stroke-linecap:round;stroke-linejoin:round;stroke-dashoffset:0.9578;paint-order:stroke fill markers"
     d="m 277.06078,87.302379 c 0,0 11.9226,-35.92556 90.1492,3.37792 28.93084,14.535771 51.75555,46.374351 92.25254,84.141091 37.2644,34.75201 25.3587,76.49785 48.84471,115.4358 24.09189,39.94255 33.36719,121.81276 33.0459,144.96848 -0.3744,26.98667 3.4437,131.44623 3.4437,131.44623 L 596.32822,168.16449 489.85963,48.208679 302.90859,42.833379 Z"
     id="path2"
     sodipodi:nodetypes="cssssccccc" />
</svg>
