<?xml version="1.0" encoding="UTF-8" standalone="no"?>
<svg
   width="1266.6406"
   height="911.4491"
   viewBox="0 0 1266.6406 911.4491"
   version="1.1"
   id="svg13"
   sodipodi:docname="E2-2.svg"
   inkscape:version="1.3 (0e150ed6c4, 2023-07-21)"
   inkscape:export-filename="..\..\Website\HG-website\svg\E2-2.svg"
   inkscape:export-xdpi="96"
   inkscape:export-ydpi="96"
   xmlns:inkscape="http://www.inkscape.org/namespaces/inkscape"
   xmlns:sodipodi="http://sodipodi.sourceforge.net/DTD/sodipodi-0.dtd"
   xmlns="http://www.w3.org/2000/svg"
   xmlns:svg="http://www.w3.org/2000/svg">
  <sodipodi:namedview
     id="namedview13"
     pagecolor="#505050"
     bordercolor="#eeeeee"
     borderopacity="1"
     inkscape:showpageshadow="0"
     inkscape:pageopacity="0"
     inkscape:pagecheckerboard="0"
     inkscape:deskcolor="#d1d1d1"
     inkscape:zoom="0.90671716"
     inkscape:cx="1442.5667"
     inkscape:cy="440.60046"
     inkscape:window-width="1760"
     inkscape:window-height="992"
     inkscape:window-x="718"
     inkscape:window-y="137"
     inkscape:window-maximized="0"
     inkscape:current-layer="svg13" />
  <defs
     id="defs4" />
  <path
     style="color:#000000;fill:#ffffff;fill-opacity:1;-inkscape-stroke:none"
     d="m 936.54492,446.4372 c -8.8961,0 -17.7865,-0.9136 -26.4241,-2.7158 -8.4176,-1.7561 -16.6976,-4.3765 -24.60979,-7.7886 -7.7692,-3.3503 -15.2627,-7.4973 -22.27251,-12.3254 -6.9437,-4.783 -13.4735,-10.2757 -19.4077,-16.3259 -5.9347,-6.0508 -11.32259,-12.7088 -16.0143,-19.7891 -4.73679,-7.1482 -8.8051,-14.7903 -12.092,-22.7134 -3.3478,-8.0698 -5.919,-16.5146 -7.6421,-25.1003 -1.7682,-8.8101 -2.6648,-17.8782 -2.6648,-26.9522 0,-8.6233 0.8116,-17.2517 2.4121,-25.6452 1.5603,-8.1832 3.8917,-16.2571 6.9293,-23.9978 l 0.2506,-0.6387 -0.5056,-0.4636 c -5.8846,-5.3963 -11.24389,-11.4256 -15.9291,-17.9205 -4.7236,-6.5483 -8.7892,-13.6079 -12.0835,-20.9826 -3.35539,-7.5117 -5.9354,-15.4068 -7.66789,-23.4658 -1.7803,-8.2806 -2.68291,-16.8174 -2.68291,-25.3731 0,-16.2344 2.3499,-31.6028 6.98451,-45.6785 4.62239,-14.0393 11.39339,-26.4152 20.1246,-36.784101 8.9334,-10.6084 19.7154,-18.8618 32.0465,-24.5308 12.9027,-5.9314 27.3258,-8.939 42.86889,-8.939 2.5898,0 5.2764,0.096 7.9856,0.285 l 0.5988,0.042 0.31851,-0.5088 c 4.9853,-7.9639 11.7932,-15.5842 20.2342,-22.6494 8.0878,-6.7693 17.3983,-12.8076 27.673,-17.9468 10.131,-5.0674 20.7423,-9.0354004 31.5393,-11.7934004 11.0005,-2.8101 21.7021,-4.2349 31.8076,-4.2349 13.00047,0 25.76257,2.1838 37.93167,6.4907 11.7609,4.1626004 22.7468,10.2227004 32.6523,18.0117004 l 0.551,0.4331 0.5952,-0.3698 c 8.1366,-5.0586 16.8957,-8.9693 26.0337,-11.624 9.4305,-2.7396 19.2316,-4.1285 29.1315,-4.1285 7.2,0 14.3951,0.7395 21.3856,2.198 6.8125,1.4212 13.5136,3.542 19.917,6.3033 6.2879,2.7116 12.3526,6.0678 18.0258,9.9755 5.6198,3.8709 10.9048,8.3167 15.7077,13.2134 4.8033,4.8972 9.1642,10.2859 12.9615,16.0164 3.8337,5.7856 7.1265,11.9707 9.7868,18.3835 2.7096,6.5315 4.7907,13.3665 6.1853,20.3155 1.4312,7.130801 2.1569,14.470401 2.1569,21.814901 0,10.9836 -1.6071,21.8174 -4.7767,32.2007 l -0.1919,0.6289 0.5011,0.4253 c 5.8383,4.9572 11.1683,10.5659 15.8416,16.6704 4.7061,6.147 8.7629,12.8186 12.0575,19.8293 3.3553,7.1399 5.937,14.6692 7.6736,22.3789 1.7859,7.928 2.6913,16.1111 2.6913,24.3221 0,11.279 -1.694,22.3925 -5.0347,33.0317 -3.232,10.2925 -7.9624,20.019 -14.0599,28.9097 -6.0172,8.7736 -13.2575,16.5783 -21.5194,23.1975 -8.3353,6.678 -17.5573,12.0244 -27.4098,15.8908 l -0.5219,0.2049 -0.098,0.552 c -2.1987,12.4404 -6.4908,24.29 -12.7571,35.2197 -6.1324,10.6961 -13.9598,20.1807 -23.2645,28.1907 -9.3711,8.0671 -19.9226,14.3616 -31.3613,18.7085 -11.838,4.4988 -24.3053,6.7798 -37.0554,6.7798 -11.0376,0 -21.9156,-1.722 -32.3317,-5.1177 -10.0751,-3.2844 -19.601,-8.0923 -28.3128,-14.2898 l -0.7023,-0.4995 -0.5978,0.6208 c -5.9505,6.1802 -12.5137,11.7937 -19.5075,16.6851 -7.0593,4.9372 -14.61607,9.1792 -22.46027,12.6079 -7.9895,3.4924 -16.3563,6.175 -24.8678,7.9736 -8.7363,1.846 -17.731,2.782 -26.734,2.782 z"
     id="path106" />
  <path
     style="color:#000000;fill:#ffffff;-inkscape-stroke:none"
     d="m 998.32222,1.0001986 c -10.1524,0 -20.895,1.4307 -31.9316,4.25 -10.8323,2.767 -21.4762,6.7489004 -31.63869,11.8320004 -10.30671,5.1553 -19.65111,11.2132 -27.77151,18.0098 -8.4752,7.0938 -15.3181,14.7517 -20.3359,22.7676 l -0.1601,0.2539 -0.2989,-0.019 c -2.7203,-0.1898 -5.4174,-0.2872 -8.0195,-0.2872 -15.6076,0 -30.1052,3.0208 -43.0781,8.9844 -12.398,5.6997 -23.242,14.0018 -32.2207,24.6641 -8.7755,10.421401 -15.5764,22.855101 -20.2168,36.949201 -4.6527,14.1307 -7.0098,29.5513 -7.0098,45.834 0,8.5908 0.9055,17.1628 2.6934,25.4785 1.7398,8.0931 4.3315,16.0208 7.7011,23.5645 3.3083,7.406 7.3911,14.496 12.1348,21.0722 4.7051,6.5226 10.0862,12.5766 15.9961,17.9961 l 0.2519,0.2324 -0.125,0.3184 c -3.049,7.7698 -5.38889,15.8741 -6.95499,24.0879 -1.60651,8.4249 -2.42001,17.0836 -2.42001,25.7383 0,9.1069 0.89911,18.2077 2.6739,27.0507 1.7295,8.6178 4.30951,17.0933 7.66991,25.1934 3.29919,7.9529 7.384,15.6218 12.1387,22.7969 4.7093,7.1069 10.11699,13.7896 16.0742,19.8633 5.9566,6.0731 12.5101,11.5873 19.48049,16.3886 7.03671,4.8467 14.5578,9.0097 22.35741,12.3731 7.94319,3.4254 16.2562,6.0553 24.707,7.8183 8.1322,1.6968 16.4901,2.5338 24.8633,2.6407 l -0.1426,0.086 h 1.8047 c 9.0376,0 18.0652,-0.9397 26.8359,-2.793 8.5451,-1.8057 16.9441,-4.4978 24.9649,-8.0039 7.8749,-3.4421 15.46047,-7.7001 22.54687,-12.6562 7.0206,-4.9102 13.609,-10.5445 19.582,-16.7481 l 0.2988,-0.3105 0.3516,0.25 c 8.7525,6.2265 18.3237,11.0572 28.4472,14.3574 10.4663,3.4121 21.3968,5.1426 32.4864,5.1426 12.8097,0 25.3379,-2.2922 37.2324,-6.8125 11.4931,-4.3676 22.0955,-10.6926 31.5098,-18.7969 9.3475,-8.0469 17.2127,-17.5775 23.373,-28.3223 6.2949,-10.9795 10.6078,-22.8842 12.8164,-35.3808 v 0 l 0.051,-0.2754 0.2598,-0.1035 c 9.8996,-3.8849 19.1669,-9.2558 27.541,-15.9649 8.3003,-6.65 15.5744,-14.4928 21.6192,-23.3066 6.1254,-8.9315 10.8762,-18.7014 14.123,-29.041 3.356,-10.6881 5.0586,-21.8526 5.0586,-33.1817 0,-8.2477 -0.909,-16.467 -2.7031,-24.4316 -1.7446,-7.7453 -4.3382,-15.3094 -7.709,-22.4824 -3.3099,-7.0432 -7.3854,-13.7444 -12.1133,-19.9199 -4.695,-6.1329 -10.0484,-11.7676 -15.9141,-16.7481 l -0.2519,-0.2129 0.096,-0.3144 c 3.1842,-10.4311 4.7988,-21.3153 4.7988,-32.3477 0,-7.3774 -0.7282,-14.7484 -2.166,-21.912101 -1.401,-6.9811 -3.4927,-13.8464 -6.2148,-20.4082 -2.6727,-6.4426 -5.9786,-12.6563 -9.8301,-18.4688 -3.8149,-5.7571 -8.1957,-11.1697 -13.0215,-16.0898 -4.8253,-4.9196 -10.1348,-9.3861 -15.7812,-13.2754 -5.7002,-3.9263 -11.7931,-7.2987 -18.1114,-10.0234 -6.4344,-2.7747 -13.168,-4.9059 -20.0136,-6.334 -7.0246,-1.4656 -14.2541,-2.2070004 -21.4883,-2.2070004 -9.9467,0 -19.7934,1.3936004 -29.2696,4.1464004 -9.1821,2.6676 -17.9831,6.5972 -26.1582,11.6797 l -0.2988,0.1856 -0.2754,-0.2168 c -9.9476,-7.8222 -20.9824,-13.909 -32.7949,-18.0899004 -12.2226,-4.3258 -25.0412,-6.5195 -38.09767,-6.5195 z m 0,1 c 12.94448,0 25.65008,2.1749 37.76568,6.4629 11.7093,4.1443004 22.6464,10.1777004 32.5097,17.9336004 l 0.8262,0.6484 0.8926,-0.5547 c 8.0981,-5.0346 16.8143,-8.9264 25.9082,-11.5683 9.3848,-2.7264 19.139,-4.1074 28.9922,-4.1074 7.1657,0 14.3287,0.7341 21.2851,2.1855 6.7793,1.4143 13.4479,3.5255 19.8203,6.2734 6.2575,2.6985 12.2932,6.0386 17.9395,9.9278 5.5931,3.8525 10.8543,8.2785 15.6348,13.1523 4.7808,4.8743 9.1226,10.2395 12.9023,15.9434 3.8159,5.7587 7.0942,11.9158 9.7422,18.2988 2.697,6.5012 4.7681,13.3057 6.1562,20.2227 1.4246,7.097801 2.1465,14.403201 2.1465,21.714801 0,10.9348 -1.5989,21.7191 -4.7539,32.0547 l -0.289,0.9434 0.7519,0.6386 c 5.8109,4.934 11.116,10.5176 15.7676,16.5938 4.6842,6.1184 8.7226,12.76 12.0019,19.7383 3.3398,7.1067 5.9101,14.6012 7.6387,22.2753 1.7777,7.8914 2.6797,16.0387 2.6797,24.2129 0,11.229 -1.6864,22.2906 -5.0117,32.8809 -3.2172,10.2453 -7.9266,19.9274 -13.9961,28.7773 -5.9896,8.7334 -13.1945,16.5015 -21.418,23.0899 -8.2965,6.6469 -17.4759,11.9685 -27.2812,15.8164 l -0.7813,0.3066 -0.1484,0.8282 c -2.1888,12.3841 -6.4596,24.1787 -12.6973,35.0585 -6.1045,10.6475 -13.8963,20.0875 -23.1582,28.0606 -9.3279,8.0299 -19.8286,14.2929 -31.2129,18.6191 -11.7815,4.4774 -24.1865,6.7481 -36.8769,6.7481 -10.9856,0 -21.8099,-1.7144 -32.1758,-5.0938 -10.0267,-3.2686 -19.5087,-8.0541 -28.1797,-14.2226 l -1.0527,-0.7481 -0.8965,0.9297 c -5.928,6.1569 -12.4667,11.7504 -19.4336,16.6231 -7.0322,4.9182 -14.56148,9.1433 -22.37498,12.5586 -7.9582,3.4787 -16.2916,6.1518 -24.7695,7.9433 -8.7019,1.8387 -17.6626,2.7715 -26.6309,2.7715 -8.8619,0 -17.7188,-0.91 -26.3223,-2.7051 -8.3844,-1.7492 -16.6324,-4.361 -24.5136,-7.7597 -7.7388,-3.3372 -15.2047,-7.4678 -22.1875,-12.2774 -6.9171,-4.7646 -13.4223,-10.2364 -19.334,-16.2637 -5.9123,-6.0279 -11.281,-12.6611 -15.9551,-19.7148 -4.719,-7.1213 -8.7723,-14.7356 -12.0469,-22.6289 -3.3352,-8.0395 -5.8966,-16.4542 -7.6133,-25.0078 -1.7615,-8.7772 -2.6543,-17.8125 -2.6543,-26.8535 0,-8.592 0.8079,-17.1907 2.4024,-25.5528 1.5545,-8.1526 3.8781,-16.1966 6.9043,-23.9082 l 0.375,-0.957 -0.7578,-0.6953 c -5.8593,-5.3731 -11.1961,-11.3785 -15.8614,-17.8457 -4.7034,-6.5204 -8.7529,-13.5512 -12.0332,-20.8946 -3.3411,-7.4797 -5.9096,-15.3403 -7.6347,-23.3652 -1.7728,-8.2455 -2.6719,-16.749 -2.6719,-25.2695 0,-16.1862 2.3425,-31.5008 6.959,-45.5215 4.6043,-13.9844 11.3462,-26.3028 20.0332,-36.619101 8.888,-10.5545 19.6088,-18.7602 31.873,-24.3985 12.8325,-5.8991 27.1816,-8.8926 42.6602,-8.8926 2.5774,0 5.2512,0.095 7.9492,0.2832 l 0.8984,0.064 0.4786,-0.7637 c 4.9527,-7.9119 11.7241,-15.4947 20.1308,-22.5312 8.0552,-6.742 17.3336,-12.7597 27.5762,-17.8828 10.0995,-5.0517 20.6778,-9.0089004 31.4394,-11.7578004 10.9645,-2.8009 21.6251,-4.2188 31.6836,-4.2188 z"
     id="path107" />
  <path
     d="m 936.54492,445.4372 c 8.9336,0 17.8586,-0.9287 26.5272,-2.7605 8.4452,-1.7844 16.7467,-4.4463 24.6741,-7.9114 7.7837,-3.4023 15.28228,-7.6118 22.28768,-12.5109 6.9408,-4.8545 13.4546,-10.4258 19.3602,-16.5594 l 1.1956,-1.2417 1.4045,0.9993 c 8.6293,6.1387 18.0644,10.9006 28.0431,14.1538 10.3158,3.363 21.0895,5.0684 32.0218,5.0684 12.6283,0 24.976,-2.2591 36.7003,-6.7146 11.3297,-4.3055 21.7811,-10.5403 31.0641,-18.5315 9.2185,-7.9358 16.9735,-17.333 23.0493,-27.9305 6.2086,-10.8288 10.4613,-22.5698 12.6399,-34.8962 l 0.1952,-1.104 1.0437,-0.4097 c 9.7585,-3.8296 18.893,-9.1255 27.1497,-15.7404 8.1852,-6.5577 15.3583,-14.2901 21.3201,-22.9827 6.0413,-8.8088 10.7282,-18.4458 13.9304,-28.6438 3.3103,-10.542 4.9888,-21.5545 4.9888,-32.7319 0,-8.137 -0.8972,-16.2461 -2.6667,-24.1023 -1.7208,-7.639 -4.2789,-15.0992 -7.6032,-22.1731 -3.2644,-6.9466 -7.2837,-13.5567 -11.9464,-19.6472 -4.6303,-6.0479 -9.9108,-11.6048 -15.695,-16.5157 l -1.0023,-0.851 0.3839,-1.2576 c 3.1407,-10.2886 4.7332,-21.0242 4.7332,-31.9087 0,-7.2786 -0.7191,-14.552 -2.1373,-21.618201 -1.3819,-6.8852 -3.4439,-13.6574 -6.1285,-20.1289 -2.6359,-6.3537 -5.8984,-12.4819 -9.6969,-18.2143 -3.7622,-5.6778 -8.0828,-11.0166 -12.8416,-15.8687 -4.7583,-4.8513 -9.9938,-9.2554 -15.5612,-13.0901 -5.6195,-3.8706 -11.6266,-7.195 -17.8545,-9.8806 -6.3418,-2.7349 -12.9784,-4.8352 -19.7252,-6.2429 -6.9235,-1.4443 -14.0498,-2.1768 -21.1814,-2.1768 -9.8054,0 -19.5128,1.3758 -28.8525,4.0889 -9.0504,2.6292 -17.7256,6.5024 -25.7848,11.5127 l -1.1903,0.74 -1.1018,-0.8662 c -9.8197,-7.7217 -20.7099,-13.729 -32.368,-17.8550004 -12.0617,-4.269 -24.7114,-6.4336 -37.59797,-6.4336 -10.0221,0 -20.6405,1.4143 -31.5602,4.2039 -10.7279,2.7404 -21.2721,6.6831004 -31.3393,11.7187004 -10.2052,5.1045 -19.4503,11.0999 -27.4785,17.8193 -8.3604,6.9978 -15.099,14.5386 -20.0285,22.4134 l -0.6371,1.0176 -1.1973,-0.084 c -2.6862,-0.1875 -5.3495,-0.2825 -7.9161,-0.2825 -15.3978,0 -29.6804,2.9768 -42.4511,8.8477 -12.1964,5.6069 -22.8616,13.7712 -31.6993,24.2664 -8.6486,10.270501 -15.3574,22.535101 -19.9399,36.452601 -4.6012,13.9746 -6.9342,29.2378 -6.9342,45.3657 0,8.4854 0.8951,16.9512 2.6605,25.1629 1.718,7.9912 4.2761,15.8198 7.6034,23.268 3.2665,7.3128 7.2976,14.3128 11.9815,20.8057 4.6455,6.4397 9.9592,12.418 15.7939,17.7683 l 1.0112,0.9275 -0.5013,1.2773 c -3.015,7.6831 -5.3291,15.6971 -6.8778,23.8196 -1.5889,8.332 -2.3944,16.8975 -2.3944,25.458 0,9.0081 0.89,18.01 2.6452,26.7556 1.7104,8.5218 4.2625,16.9041 7.5854,24.9139 3.2624,7.864 7.3005,15.4489 12.0018,22.5439 4.6566,7.0276 10.0044,13.6357 15.8947,19.6411 5.8895,6.0049 12.3699,11.4563 19.2611,16.2026 6.956,4.7913 14.3918,8.9065 22.1012,12.231 7.8505,3.3853 16.0661,5.9856 24.418,7.728 8.5706,1.7879 17.3923,2.6946 26.2199,2.6946 m 0,2 c -72.9719,0 -132.1273,-60.3115 -132.1273,-134.7107 0,-17.6721 3.3425,-34.5456 9.4105,-50.0083 -23.7493,-21.7785 -38.6875,-53.3479 -38.6875,-88.479 0,-65.708 38.5765,-116.932401 103.0245,-116.932401 2.7087,0 5.3929,0.1016 8.0552,0.2874 20.7216,-33.1016 70.7312,-57.09400036 112.1018,-57.09400036 26.80797,0 51.49877,9.22289996 71.20217,24.71630036 16.2282,-10.0889 35.2946,-15.9031004 55.6932,-15.9031004 59.1647,0 107.1266,48.8997004 107.1266,109.2205014 0,11.3157 -1.6871,22.2288 -4.8203,32.4927 23.5962,20.0344 38.6168,50.2092 38.6168,83.9629 0,46.4973 -28.5002,86.2009 -68.6584,101.9607 -9.0173,51.0185 -52.7857,89.7246 -105.4231,89.7246 -22.7663,0 -43.8703,-7.2474 -61.2242,-19.5926 -23.9766,24.9019 -57.36037,40.355 -94.28997,40.355 z"
     stroke="none"
     fill="#e8daea"
     id="path9"
     style="stroke:#e6b9cf;stroke-opacity:1" />
  <path
     id="Pfad_489"
     data-name="Pfad 489"
     d="m 1011.5106,74.053199 c 15.405,7.674 28.883,16.347 44.276,24.046 0.163,0.081 1.342,0.032 2.144,0.08 -1.816,-2.429 -6.578,-10.252 -4.33,-8.016 6.081,6.049 6.982,6.969 8.625,8.624 0.274,0.277 0.7,-0.336 1.053,-0.5 a 79.639,79.639 0 0 0 -1.095,-8.032 35.21,35.21 0 0 0 -9.376,-16.64 48.158,48.158 0 0 1 -6.844,-9.845 2.484,2.484 0 0 1 0.623,0.28 c 8.955,7.581 18.1,14.953 26.788,22.829 6.57,5.957 13.041,12.152 17.365,20.100001 3.588,6.6 5.409,13.456 2.709,20.892 a 22.713,22.713 0 0 1 -7.093,9.706 c -0.689,0.576 -1.4,1.132 -2.513,2.036 2.925,0 5.321,-0.146 7.688,0.048 1.806,0.147 4.748,0.331 6.274,1.182 5.272,2.943 9.449,6.148 14.57,9.352 a 5.711,5.711 0 0 1 1.835,2.294 c 1.28,2.57 2.427,5.206 3.626,7.817 l -0.492,0.231 c -0.871,-1.683 -2.724,-2.4 -3.558,-4.1 -1.191,-2.432 -3.075,-3.939 -5.358,-5.537 -2.283,-1.598 -4,-3.467 -6.362,-4.921 -5.353,-3.3 -12.03,-3.176 -18.163,-2.144 -9.6,1.615 -18.417,1.582 -27.839,3.909 -8.659,2.139 -17.066,5.468 -25.388,8.767 a 223.685,223.685 0 0 0 -49.81897,27.388 c -3.443,2.518 -6.73,5.25 -10.091,7.882 -0.361,0.283 -0.733,0.553 -1.1,0.829 l -0.406,-0.365 a 79.1,79.1 0 0 1 5.623,-7.1 c 3.741,-3.791 7.715,-7.359 11.684,-10.918 a 2.991,2.991 0 0 0 1.234,-3.216 20.392,20.392 0 0 1 -0.077,-6.157 c 0.905,-6.905 1.206,-8.313 2.138,-15.214 0.185,-1.369 0.639,-8.27 0.643,-9.674 0.015,-5.336 -0.35,-10.719 0.225,-16 0.861,-7.9 -2.995,-13.262 -8.657,-17.639 -5.779,-4.468 -12.819,-5.6 -19.882,-6.287 -3.036,-0.294001 -6.1,-0.288001 -9.153,-0.427001 -1.363,-0.062 -2.017,0.493001 -2.244,1.926001 -2.351,14.892 -7.832,29.744 -9.945,44.668 -1.714,12.1 -3.059,24.268 -4.152,36.444 -1.2,13.351 -1.415,26.735 1.947,39.874 a 38.69,38.69 0 0 0 3.4,8.483 c 2.811,5.274 10.214,7.344 16.1,6.224 8.394,-1.6 15.88,-5.333 22.857,-10.135 16.738,-11.521 31.86997,-25.053 47.49997,-37.963 11.623,-9.6 22.914,-19.645 35.81,-27.6 0.545,-0.336 1.116,-0.628 1.668,-0.953 2.957,-1.739 5.535,-1.634 8.674,0.294 9.407,5.779 19.916,8.671 30.757,10.27 a 27.845,27.845 0 0 1 10.825,3.6 c 4.545,2.794 9.181,5.415 14.643,6.118 -0.034,0.24 -1.1,0.885 -1.137,1.124 -2.3,-0.182 -3.558,-0.769 -6.245,-0.982 0.541,1.029 0.959,1.884 1.428,2.71 a 90.171,90.171 0 0 1 12.016,48.482 c -0.767,21.373 -8.225,40.206 -23.518,55.418 -4.6,4.574 -10.138,8.221 -15.377,12.117 -1.416,1.053 -2.366,2.035 -2.01,3.8 1.151,5.7 1.77,11.6 3.674,17.039 3.3,9.448 7.415,18.613 11.188,27.9 1.472,3.623 3.181,7.171 4.354,10.888 1.235,3.91 1.606,7.919 -0.627,11.781 -1.831,3.168 -5,4.128 -8.09,5.084 -5.266,1.628 -10.761,1.387 -16.1,0.766 -12.63,-1.47 -25.187,-3.586 -37.826,-4.962 -4.522,-0.492 -9.218,0.18 -13.792,0.693 -17.487,1.96 -32.508,9.712 -46.50697,19.922 -5.735,4.183 -11.755,7.975 -17.643,11.95 a 67.317,67.317 0 0 1 -7.106,2.65 c -4.25,0.765 -7.714,-0.795 -10.8,-3.408 -5.059,-4.279 -8.428,-9.856 -11.016,-15.806 -4.054,-9.317 -8.079,-18.679 -11.4,-28.27 -2.05,-5.922 -2.98,-12.269 -4.038,-18.489 a 146.349,146.349 0 0 1 -2.223,-28.447 93.5,93.5 0 0 1 13.263,-45.6 c 3.989,-6.778 9.762,-16.715 15.772,-22.717 -1.245,0 -2.025,-0.027 -2.8,0 -7.9,0.316 -13.409,-3.424 -17.2,-10.11 -3.776,-6.654 -5.224,-13.97 -5.89,-21.449 -1.45,-16.274 -0.651,-28.59 1.733,-44.659 3.289,-22.183 8.224,-44.038 13.305,-65.861 0.157,-0.671 0.256,-1.354 0.426,-2.27 -1.2,0 -1.87,0.022 -3.135,0.012 a 28.007,28.007 0 0 1 -7.927,-0.962001 22.794,22.794 0 0 1 -7.031,-4.036 c -0.582,-0.722 -3.981,-4.95 -2.955,-8.226 a 34.534,34.534 0 0 1 3.654,-8.09 c 1.574,-2.486 10.046,-10.665 10.539,-11.068 6.263,-5.111 10.126,-8.489 17.8,-11.212 4.367,-1.551 4.875,-1.473 9.336,-0.2 4.53,1.293 9.306,1.8 13.747,3.315 7.458,2.547 10.934,5.611 18.28,8.482 1.57297,0.615 3.09997,1.338 4.73297,2.047 z"
     fill="#f2cbf6"
     stroke="#707070"
     stroke-width="0.2"
     opacity="0.56"
     style="fill:#e6b9cf;fill-opacity:1;stroke:#e6b9cf;stroke-opacity:1" />
  <path
     id="Pfad_490"
     data-name="Pfad 490"
     d="m 1102.0226,163.3312 c 2.829,0 5.6,-0.161 8.333,0.045 2.654,0.2 4.7,1.641 6.505,3.66 2.877,3.222 5.994,6.229 9,9.331 0.172,0.177 0.3,0.392 0.786,1.033 a 22.509,22.509 0 0 1 -8.278,-5.539 c -2.33,-2.466 -4.346,-5.392 -7.8,-6.43 -2.762,-0.832 -5.611,-1.394 -8.546,-2.1 z"
     fill="#f2cbf6"
     stroke="#707070"
     stroke-width="0.2"
     opacity="0.56"
     style="fill:#e6b9cf;fill-opacity:1;stroke:#e6b9cf;stroke-opacity:1" />
  <ellipse
     cx="338.95563"
     cy="446.9982"
     rx="271.845"
     ry="334.77802"
     stroke="none"
     id="ellipse3"
     style="display:inline;fill:#ffebff;fill-opacity:1;stroke:#42210b;stroke-opacity:0.4" />
  <path
     id="path179"
     style="fill:#e6b9cf;fill-opacity:1"
     d="M 344.60157,102.23603 C 82.815085,100.83603 5.0000001e-6,295.55351 -4.9999999e-6,507.90009 -4.9999999e-6,727.09965 23.863245,804.77767 90.537105,843.37861 c 7.675,4.44298 35.795375,17.54591 51.236335,4.21093 15.43998,11.93098 57.55074,25.96769 61.76172,21.05469 3.682,-4.29998 -32.36,-70.99832 -41.91797,-90.11328 -6.3056,-12.6112 -40.44242,-96.42602 -43.05664,-223.67188 -0.67763,-32.98311 6.04099,-58.33008 9.67578,-98.58007 2.63286,-29.15503 1.14965,-82.9323 9.64649,-114.04883 17.58588,-64.40183 33.98634,-113.61836 87.61523,-142.0293 33.90428,-19.38624 47.74609,-10.41211 47.74609,-10.41211 l 7.32813,-6.29883 -1.61523,2.7793 c 5.2169,-7.78647 24.77652,-25.25238 88.2539,6.64063 28.93082,14.53575 59.47522,41.9624 99.97211,79.7291 37.2644,34.75198 29.77131,76.49764 53.2572,115.43555 24.0919,39.94251 32.1976,83.7637 26.9133,149.38027 -1.7557,21.80124 -4.2017,83.55991 -3.2618,110.36133 -10.4065,74.79015 -27.1672,121.89994 -31.6796,130.92382 -9.558,19.11498 -45.601,85.81924 -41.91799,90.11524 4.211,4.91298 46.3207,-9.12566 61.7617,-21.05664 15.44,13.33496 43.5594,0.23206 51.2344,-4.21094 66.6748,-38.59992 90.5371,-116.28194 90.5371,-335.47852 0,-208.19358 -79.6215,-399.43667 -329.46095,-405.51367 z m -65.64453,84.0332 c -1.21218,1.80921 -1.89649,3.26172 -1.89649,3.26172 z"
     sodipodi:nodetypes="csccccsssccccsssscccccsccccc" />
  <path
     d="m 397.22703,337.9234 c -8.0581,4.06714 -21.59808,9.41444 -17.69429,17.72286 3.23398,6.88101 16.44828,4.87987 24.49158,2.58406 8.0434,-2.2958 7.917,-6.71568 20.75461,-9.88407 12.8375,-3.16843 41.1641,3.20525 76.1052,17.68715 17.0707,7.07523 33.88349,20.8647 45.21229,28.64011 9.89911,6.79412 18.7698,-4.25368 11.36731,-15.99833 -7.7935,-12.36505 -91.70801,-42.70413 -116.74691,-45.87778 -25.039,-3.17365 -35.4317,1.05886 -43.48979,5.126 z"
     style="fill:#e6b9cf;fill-opacity:1"
     id="path181"
     sodipodi:nodetypes="zczzssszz" />
  <path
     d="m 273.92393,337.79826 c 7.90221,4.36229 21.2352,10.2065 17.02689,18.36491 -3.48614,6.75675 -16.61745,4.26839 -24.57039,1.6768 -7.95294,-2.59158 -7.66325,-7.0038 -20.37493,-10.64467 -12.71149,-3.64091 -41.25437,1.6811 -76.7071,14.86124 -17.32073,6.43916 -34.63182,19.59759 -46.24031,26.94882 -3.25224,2.05953 -6.33101,2.29009 -8.75511,1.27499 -5.13654,-2.15096 -7.33359,-9.89494 -2.0129,-17.68261 8.24537,-12.06841 93.22422,-39.28424 118.36337,-41.52993 25.13915,-2.24568 35.36826,2.36815 43.27048,6.73045 z"
     style="fill:#e6b9cf;fill-opacity:1"
     id="path278"
     sodipodi:nodetypes="zczzsssszz" />
  <path
     d="m 457.33403,418.86689 c -14.856,0 -26.8985,16.04145 -26.8985,30.89843 a 26.9,26.9 0 1 0 53.7989,0 c 0,-14.85698 -12.0445,-30.89843 -26.9004,-30.89843 z"
     style="fill:#262100"
     id="path54" />
  <path
     d="m 457.36133,428.95282 a 10.742,10.742 0 0 0 -10.7422,10.74219 10.742,10.742 0 0 0 10.7422,10.74219 10.742,10.742 0 0 0 10.74219,-10.74219 10.742,10.742 0 0 0 -10.74219,-10.74219 z"
     style="fill:#ffffff"
     id="path53" />
  <path
     d="m 455.69923,392.11689 c -11.887,0.18442 -23.2727,5.74905 -32.8887,12.40625 -10.9897,7.60821 -19.7543,16.73725 -24.289,21.27148 -0.5857,0.58576 -0.5857,1.53534 0,2.1211 0.5857,0.58563 1.5353,0.58563 2.1211,0 4.5891,-4.58876 13.1954,-13.53229 23.87499,-20.92579 10.6794,-7.39348 23.3473,-13.1427 35.94721,-11.63086 20.8115,2.49711 32.56289,11.97411 39.4238,19.51954 4.1822,4.62467 7.72679,9.78856 10.53909,15.35351 0.37371,0.73952 1.27621,1.03599 2.0156,0.66211 0.73961,-0.37369 1.03601,-1.2762 0.6621,-2.01562 -2.9337,-5.80517 -6.6311,-11.19159 -10.99409,-16.01563 v -0.002 c -7.1749,-7.89054 -19.71061,-17.89159 -41.2871,-20.48047 -1.7148,-0.20577 -3.425,-0.29002 -5.1231,-0.26367 z"
     style="fill:#262100;stroke-linecap:round;stroke-miterlimit:10"
     id="path17" />
  <path
     d="m 461.14062,454.4372 a 5,5 0 0 0 -5,5 5,5 0 0 0 5,5 5,5 0 0 0 5,-5 5,5 0 0 0 -5,-5 z"
     style="fill:#ffffff"
     id="path51" />
  <path
     d="m 410.14062,419.4372 1.6504,3.24609 11.11131,9.05469 1.3828,-1.26172 c 0,0 -2.6767,-0.23489 -3.7207,-1.71289 -0.71701,-1.016 -5.6833,-4.58653 -8.0293,-6.76953 -1.066,-0.993 -2.39451,-2.55664 -2.39451,-2.55664 z"
     style="fill:#262100"
     id="path50" />
  <path
     d="m 420.81253,401.2497 1.17969,4.30664 10.414,18.08008 2.3028,-1.2168 c 0,0 -3.7118,-2.54021 -4.4688,-5.0332 -0.521,-1.714 -4.862,-6.27657 -7.248,-11.85156 -0.814,-1.903 -2.1797,-4.28516 -2.17969,-4.28516 z"
     style="fill:#262100"
     id="path49" />
  <path
     d="m 401.94332,433.04853 1.8164,2.45898 11.75201,9.16602 1.48049,-1.25781 c 0,0 -3.351,-0.80685 -4.459,-2.21485 -0.761,-0.969 -5.0215,-2.91993 -8.0215,-5.91992 -1.024,-1.024 -2.5684,-2.23242 -2.5684,-2.23242 z"
     style="fill:#262100"
     id="path48" />
  <path
     d="m 406.14062,427.4372 1.64651,2.26562 10.6875,8.5 1.3594,-1.14648 c 0,0 -3.0586,-0.7625 -4.0586,-2.0625 -0.694,-0.895 -4.57581,-2.71129 -7.3008,-5.48828 -0.934,-0.948 -2.33401,-2.06836 -2.33401,-2.06836 z"
     style="fill:#262100"
     id="path47" />
  <path
     d="m 430.06642,391.58173 2.0742,7.85547 9.53131,19.33789 2.93159,-1.06055 c 0,0 -3.8189,-2.32535 -4.4629,-5.27734 -0.44299,-2.029 -5.817,-11.12301 -8,-16 -0.99299,-2.218 -2.0742,-4.85547 -2.0742,-4.85547 z"
     style="fill:#262100"
     id="path46" />
  <path
     d="m 441.55083,385.84931 1.58979,8.58789 7.35941,20.78711 3.22849,-0.61914 c 0,0 -4.2669,-3.07498 -4.5879,-6.16797 -0.221,-2.126 -4.288,-11.71501 -6,-17 -0.779,-2.404 -1.58979,-5.58789 -1.58979,-5.58789 z"
     style="fill:#262100"
     id="path45" />
  <path
     d="m 455.14062,382.43525 -0.2363,9.19922 0.10741,23.71093 3.3027,-0.29883 c 0,0 -1.9675,-7.04355 -1.3535,-10.43554 0.42,-2.329 -1.2033,-12.06801 -1.2793,-18 0.022,-1.41071 -0.1607,-2.81714 -0.54101,-4.17578 z"
     style="fill:#262100"
     id="path44" />
  <path
     d="m 413.14062,409.4372 0.9668,3.08789 11.752,14.74023 1.7812,-1.36523 c 0,0 -3.533,-1.40489 -4.5,-3.46289 -0.665,-1.414 -5.65,-7.82201 -8,-11 -0.5405,-0.78188 -1.2181,-1.45947 -2,-2 z"
     style="fill:#262100"
     id="path43" />
  <path
     d="m 504.14062,416.4372 c -0.6937,0.48553 -1.31449,1.06757 -1.84369,1.72852 -2.24,2.66999 -4.0986,4.45162 -4.7286,5.64062 -0.922,1.728 -7.2519,6.46094 -7.2519,6.46094 l 1.5,0.16992 6.5722,-5.90039 z"
     style="fill:#262100"
     id="path42" />
  <path
     d="m 491.40822,396.10712 c -0.7345,0.80996 -1.3483,1.72171 -1.8223,2.70703 -2.079,4.049 -6.5991,10.25648 -7.0801,11.98047 -0.7,2.508 -4.5527,6.76563 -4.5527,6.76563 l 1.1875,0.87695 7,-12 z"
     style="fill:#262100"
     id="path41" />
  <path
     d="m 480.17383,390.4372 c -0.62111,0.95965 -1.1013,2.0035 -1.4258,3.09961 -1.508,4.59999 -3.60741,10.90039 -4.60741,12.90039 -1.26999,2.53999 -4.31639,8.5 -4.31639,8.5 l 2.3906,1.16406 6.92579,-20.66406 z"
     style="fill:#262100"
     id="path40" />
  <path
     d="m 469.14062,384.4372 c -0.57629,1.13387 -0.9861,2.34489 -1.21679,3.5957 -1.116,5.23399 -4.2715,13.55337 -4.3125,15.69336 -0.059,3.112 -3.0391,8.98633 -3.0391,8.98633 l 2.56839,0.72461 4,-18 z"
     style="fill:#262100"
     id="path39" />
  <path
     d="m 500.31642,406.4372 c 0,0 -2.1068,2.555 -3.1758,4 -2.34999,3.17799 -5.8252,5.89941 -6.49019,7.31641 -0.96701,2.05799 -4.83401,5.14648 -4.83401,5.14648 l 1.3242,0.53711 12.20901,-13.91211 z"
     style="fill:#262100"
     id="path38" />
  <path
     d="m 507.39452,427.27704 c 0,0 -1.9686,1.55436 -2.9746,2.44336 -2.211,1.954 -5.3783,3.53174 -6.0313,4.42774 -0.948,1.29999 -4.4746,3.09179 -4.4746,3.09179 l 1.127,0.44727 11.3535,-8.42383 z"
     style="fill:#262100"
     id="path37" />
  <path
     d="m 512.98443,435.1579 c 0,0 -2.145,1.29969 -3.254,2.05469 -2.437,1.663 -5.7761,2.83363 -6.5351,3.64063 -1.1,1.17399 -4.8262,2.51171 -4.8262,2.51171 l 1.0586,0.58399 12.3164,-6.94336 z"
     style="fill:#262100"
     id="path36" />
  <path
     d="m 170.26954,419.4372 1.65039,3.24609 11.11328,9.05469 1.38086,-1.26172 c 0,0 -2.67772,-0.23489 -3.72072,-1.71289 -0.71799,-1.016 -5.6843,-4.58653 -8.02928,-6.76953 -1.067,-0.993 -2.39453,-2.55664 -2.39453,-2.55664 z"
     style="fill:#262100"
     id="path35" />
  <path
     d="m 180.94727,401.2497 1.17969,4.30664 10.41406,18.08008 2.30273,-1.2168 c 0,0 -3.71075,-2.54021 -4.46875,-5.0332 -0.52099,-1.714 -4.86205,-6.27657 -7.24804,-11.85156 -0.81501,-1.903 -2.17969,-4.28516 -2.17969,-4.28516 z"
     style="fill:#262100"
     id="path34" />
  <path
     d="m 162.07227,433.04853 1.81641,2.45898 11.75194,9.16602 1.48047,-1.25781 c 0,0 -3.35099,-0.80685 -4.45899,-2.21485 -0.76099,-0.969 -5.02344,-2.91993 -8.02342,-5.91992 -1.024,-1.024 -2.56641,-2.23242 -2.56641,-2.23242 z"
     style="fill:#262100"
     id="path33" />
  <path
     d="m 166.26954,427.4372 1.64842,2.26562 10.68556,8.5 1.36132,-1.14648 c 0,0 -3.05555,-0.7625 -4.06055,-2.0625 -0.7,-0.895 -4.57383,-2.71129 -7.29883,-5.48828 -0.93499,-0.948 -2.33592,-2.06836 -2.33592,-2.06836 z"
     style="fill:#262100"
     id="path32" />
  <path
     d="m 190.19727,391.58173 2.07227,7.85547 9.53125,19.33789 2.93164,-1.06055 c 0,0 -3.8179,-2.32535 -4.46289,-5.27734 -0.443,-2.029 -5.81701,-11.12301 -8,-16 -0.992,-2.218 -2.07227,-4.85547 -2.07227,-4.85547 z"
     style="fill:#262100"
     id="path31" />
  <path
     d="m 201.67968,385.84931 1.58985,8.58789 7.35937,20.78711 3.22852,-0.61914 c 0,0 -4.26689,-3.07498 -4.58789,-6.16797 -0.221,-2.126 -4.28701,-11.71501 -6,-17 -0.778,-2.404 -1.58985,-5.58789 -1.58985,-5.58789 z"
     style="fill:#262100"
     id="path30" />
  <path
     d="m 215.26954,382.43525 -0.23633,9.19922 0.10742,23.71093 3.30273,-0.29883 c 0,0 -1.96751,-7.04355 -1.35351,-10.43554 0.42,-2.329 -1.2033,-12.06801 -1.2793,-18 0.0216,-1.41071 -0.16065,-2.81715 -0.54101,-4.17578 z"
     style="fill:#262100"
     id="path29" />
  <path
     d="m 173.27343,409.4372 0.9668,3.08789 11.75,14.74023 1.7832,-1.36523 c 0,0 -3.533,-1.40489 -4.5,-3.46289 -0.664,-1.414 -5.65,-7.82201 -8,-11 -0.54024,-0.78212 -1.21788,-1.45976 -2,-2 z"
     style="fill:#262100"
     id="path28" />
  <path
     d="m 264.26562,416.4372 c -0.69372,0.48547 -1.31457,1.06752 -1.84375,1.72852 -2.24,2.66999 -4.09852,4.45162 -4.72852,5.64062 -0.92199,1.728 -7.25194,6.46094 -7.25194,6.46094 l 1.5,0.16992 6.57227,-5.90039 z"
     style="fill:#262100"
     id="path27" />
  <path
     d="m 251.5371,396.10712 c -0.7345,0.80997 -1.34825,1.72172 -1.82226,2.70703 -2.07899,4.049 -6.60008,10.25648 -7.08007,11.98047 -0.70601,2.508 -4.55273,6.76563 -4.55273,6.76563 l 1.1875,0.87695 7,-12 z"
     style="fill:#262100"
     id="path26" />
  <path
     d="m 240.30273,390.4372 c -0.62085,0.95981 -1.10099,2.00362 -1.42578,3.09961 -1.50899,4.59999 -3.60742,10.90039 -4.60741,12.90039 -1.27,2.53999 -4.31642,8.5 -4.31642,8.5 l 2.38672,1.16406 6.9297,-20.66406 z"
     style="fill:#262100"
     id="path25" />
  <path
     d="m 229.26954,384.4372 c -0.57526,1.13412 -0.98441,2.34509 -1.21485,3.5957 -1.116,5.23399 -4.27345,13.55337 -4.31445,15.69336 -0.059,3.112 -3.03711,8.98633 -3.03711,8.98633 l 2.56641,0.72461 4,-18 z"
     style="fill:#262100"
     id="path24" />
  <path
     d="m 260.44141,406.4372 c 0,0 -2.10874,2.555 -3.17773,4 -2.34901,3.17799 -5.82524,5.89941 -6.49024,7.31641 -0.966,2.05799 -4.83203,5.14648 -4.83203,5.14648 l 1.32813,0.53711 12.20898,-13.91211 z"
     style="fill:#262100"
     id="path23" />
  <path
     d="m 267.52343,427.27704 c 0,0 -1.96961,1.55436 -2.97461,2.44336 -2.21099,1.954 -5.37925,3.53174 -6.03125,4.42774 -0.94899,1.29999 -4.47655,3.09179 -4.47655,3.09179 l 1.12694,0.44727 11.35547,-8.42383 z"
     style="fill:#262100"
     id="path22" />
  <path
     d="m 273.11523,435.1579 c 0,0 -2.14685,1.29969 -3.25586,2.05469 -2.437,1.663 -5.77616,2.83363 -6.53516,3.64063 -1.1,1.17399 -4.82617,2.51171 -4.82617,2.51171 l 1.06055,0.58399 12.31445,-6.94336 z"
     style="fill:#262100"
     id="path21" />
  <path
     d="m 457.70702,411.77509 c -8.98409,0.0146 -18.3574,3.69512 -29.5664,12.66211 -5.441,4.353 -12.99919,14.99922 -19.24219,19.94922 -12.982,10.28799 -7.7206,6.31847 -16.1426,11.23047 -4.471,2.60999 -10.6394,1.39609 -10.9004,3.12109 v 0 c -0.1309,0.836 -1.1009,1.88242 0,2.23242 1.048,0.34 8.4041,5.32942 31.9571,-10.97656 18.247,-12.63299 21.1691,-22.6625 31.32809,-25.5625 6.12201,-1.742 18.51251,-7.5546 35.3125,3.40039 15.97701,10.42199 25.42721,38.12517 37.40821,37.20117 1.07099,-0.082 4.0733,-0.53133 4.6113,-0.61133 4.298,-0.64199 15.5905,-2.32704 15.5645,-3.87304 -0.019,-1.194 -11.26421,-1.93519 -13.4492,-2.24219 -21.11401,-2.963 -20.4504,-25.86923 -39.6504,-37.19922 -9.65451,-5.69549 -18.2503,-9.34665 -27.23441,-9.33203 z"
     style="fill:#262100"
     id="path20" />
  <path
     d="m 218.33984,418.36689 c -14.85599,0 -26.89844,16.04145 -26.89844,30.89843 a 26.9,26.9 0 1 0 53.79883,0 c 0,-14.85698 -12.04441,-30.89843 -26.90039,-30.89843 z"
     style="fill:#262100"
     id="path19" />
  <path
     d="m 218.31641,428.45282 a 10.742,10.742 0 0 0 -10.7422,10.74219 10.742,10.742 0 0 0 10.7422,10.74219 10.742,10.742 0 0 0 10.74023,-10.74219 10.742,10.742 0 0 0 -10.74023,-10.74219 z"
     style="fill:#ffffff"
     id="path18" />
  <path
     d="m 219.9746,391.61689 c -1.69813,-0.0263 -3.4062,0.0579 -5.12108,0.26367 -21.57546,2.58889 -34.11027,12.58993 -41.28517,20.48047 h -0.002 l -0.002,0.002 c -4.36296,4.82404 -8.06045,10.21044 -10.99414,16.01563 a 1.5,1.5 0 0 0 0.66211,2.01562 1.5,1.5 0 0 0 2.01562,-0.66211 c 2.81213,-5.5646 6.3573,-10.72908 10.53906,-15.35351 l 0.004,-0.004 c 6.86156,-7.54483 18.61284,-17.01893 39.41992,-19.51563 12.59988,-1.51184 25.26763,4.23737 35.94727,11.63086 10.67964,7.39351 19.28437,16.3371 23.87304,20.92579 a 1.5,1.5 0 0 0 2.12109,0 1.5,1.5 0 0 0 0,-2.1211 c -4.53431,-4.5343 -13.29728,-13.66326 -24.28711,-21.27148 -9.61608,-6.65721 -21.00356,-12.22184 -32.89062,-12.40625 z"
     style="fill:#262100;stroke-linecap:round;stroke-miterlimit:10"
     id="path16" />
  <path
     d="m 223.14062,454.4372 a 5,5 0 0 0 -5,5 5,5 0 0 0 5,5 5,5 0 0 0 5,-5 5,5 0 0 0 -5,-5 z"
     style="fill:#ffffff"
     id="path14" />
  <path
     d="m 446.53713,451.21064 a 3.5,3.5 0 0 0 -3.5,3.5 3.5,3.5 0 0 0 3.5,3.5 3.5,3.5 0 0 0 3.5,-3.5 3.5,3.5 0 0 0 -3.5,-3.5 z"
     style="fill:#ffffff"
     id="path12" />
  <path
     d="m 208.5371,451.21064 a 3.5,3.5 0 0 0 -3.5,3.5 3.5,3.5 0 0 0 3.5,3.5 3.5,3.5 0 0 0 3.5,-3.5 3.5,3.5 0 0 0 -3.5,-3.5 z"
     style="fill:#ffffff"
     id="path11" />
  <path
     d="m 217.97266,411.279 c -8.98411,-0.0146 -17.57988,3.63653 -27.23437,9.33203 -19.19998,11.32999 -18.53742,34.23622 -39.6504,37.19922 -2.186,0.307 -13.43218,1.04819 -13.45118,2.24218 -0.025,1.546 11.26841,3.23105 15.56641,3.87305 0.53701,0.08 3.54034,0.52933 4.61133,0.61133 11.98099,0.924 21.42926,-26.77918 37.40625,-37.20117 16.79998,-10.95499 29.19246,-5.14239 35.31445,-3.40039 10.15899,2.89999 13.08014,12.92951 31.32813,25.5625 23.55297,16.30598 30.90903,11.31656 31.95703,10.97656 1.098,-0.354 0.127,-1.40033 0,-2.23633 -0.261,-1.725 -6.4294,-0.5111 -10.90039,-3.12109 -8.42199,-4.912 -3.15964,-0.94248 -16.14063,-11.23047 -6.24099,-4.946 -13.80119,-15.59232 -19.24219,-19.94531 -11.20898,-8.96699 -20.58033,-12.64749 -29.56444,-12.66211 z"
     style="fill:#262100"
     id="path10" />
  <ellipse
     cx="700.64062"
     cy="318.43719"
     rx="17.5"
     ry="18"
     fill="none"
     id="ellipse12"
     style="fill:#ffffff;fill-opacity:1;stroke:#e6b9cf;stroke-width:1.8;stroke-dasharray:none;stroke-opacity:1" />
  <ellipse
     cx="761.38135"
     cy="275.68417"
     rx="25.626482"
     ry="26.358667"
     fill="none"
     id="ellipse12-7"
     style="fill:#ffffff;fill-opacity:1;stroke:#e6b9cf;stroke-width:2.63587;stroke-dasharray:none;stroke-opacity:1" />
  <path
     d="m 141.03125,528.34736 c -3.03681,-0.0866 -7.50383,2.83437 -9.2129,6.5 -1.82299,3.90999 -1.17773,7.08984 0.82227,12.08984 2,5 11,9 11,9 l 27.36523,-17.51563 c 0,10e-6 -4.35875,-3.48393 -7.96875,-4.71093 -3.60999,-1.227 -6.40039,-2.77344 -10.40039,-3.77344 -3.99999,-1 -8.00158,-1.00025 -11.01757,-1.53125 -0.18849,-0.0332 -0.38544,-0.0528 -0.58789,-0.0586 z"
     style="fill:#fcd6ce"
     id="path7" />
  <path
     d="m 518.70903,526.80634 c -6.7535,0 -10.5368,2.0623 -14.543,4.24609 -1.1533,0.6287 -2.3465,1.27949 -3.6016,1.86719 -6.0968,2.8552 -15.0022,9.44208 -18.7226,12.92188 l -9.9824,10.28711 -2.4512,2.52343 0.709,-3.2207 c -0.1659,-0.6306 -0.777,-2.40385 -2.0586,-4.18945 -1.9852,-2.7664 -4.7124,-4.49296 -8.1035,-5.13086 -1.6953,-0.3186 -4.2916,-1.0867 -7.5782,-2.0586 -4.6151,-1.36449 -10.358,-3.06293 -15.7519,-4.11523 -4.2501,-0.8291 -12.1696,-3.37013 -19.8281,-5.82813 -8.9977,-2.88769 -18.3025,-5.87405 -21.3458,-6.00195 -0.7477,-0.0313 -1.6318,-0.0883 -2.6562,-0.1543 -2.5079,-0.16219 -5.9434,-0.38281 -10.0391,-0.38281 -4.21797,0 -8.25412,0.22712 -12.34176,0.69531 -5.04242,0.5774 -10.09541,1.52904 -15.01758,2.83204 -8.85332,2.34349 -16.00299,3.523 -22.31055,4.5625 -7.61669,1.25569 -13.63148,2.24618 -19.55273,4.76757 l -0.23633,0.10157 -0.25391,-0.0254 c -0.16364,-0.0159 -16.56239,-1.60157 -33.36718,-1.60157 -8.25867,0 -15.28437,0.37916 -20.88086,1.12696 -18.97673,3.46099 -47.62195,8.78539 -49.83008,9.46679 l -7.39453,4.67188 -0.64649,0.4082 -0.56445,-0.51562 -6.80273,-6.23633 c -1.97168,-1.0583 -3.79164,-2.12009 -5.55274,-3.14649 -4.46252,-2.60029 -8.67646,-5.05595 -14.58203,-7.03125 -3.41681,-1.14259 -6.68562,-1.72265 -9.71484,-1.72265 -3.02442,0 -5.7641,0.56549 -8.14258,1.67969 l -0.33203,0.15625 c -4.04383,1.88719 -10.81128,5.04569 -12.10352,13.14648 -0.63934,4.0078 -0.67127,6.56867 -0.11719,9.44727 0.57421,2.98339 1.76667,6.26271 3.74414,11.69531 0.41131,1.1299 0.83655,2.29608 1.30079,3.58398 l 39.83203,75.18946 0.36914,0.69726 -0.5918,0.52149 c -0.0734,0.0647 -7.36335,6.49314 -9.49023,9.49414 -1.54858,2.18429 -1.91952,5.30811 -2.00782,6.63281 l 32.38477,14.67969 h -0.006 c 0.0526,0.0234 5.32898,2.37304 10.65625,4.80664 10.92314,4.98999 11.39905,5.4468 11.6543,5.6914 0.71771,0.6878 5.70496,3.82027 12.64843,5.53907 4.35278,1.07829 11.22077,4.64356 17.2793,7.78906 3.67321,1.907 6.84528,3.55445 8.70703,4.25195 3.45728,1.2956 4.77429,3.80172 5.73633,5.63281 0.47278,0.8999 0.88104,1.67753 1.33594,1.89063 1.12195,0.5252 2.34515,2.15137 4.24804,4.75976 1.61297,2.2112 3.44074,4.71707 4.85743,5.60157 3.33409,2.08279 6.30072,4.79444 10.77539,11.86914 2.48455,3.92729 9.6275,11.04738 15.92968,17.33008 5.24414,5.22749 9.7724,9.7434 11.58008,12.2832 3.96386,5.56909 16.88946,25.07293 17.01953,25.26953 l 0.0449,0.0684 0.0332,0.0742 c 0.0198,0.0439 2.01251,4.4654 4.81836,8.875 1.62878,2.5596 3.20575,4.6106 4.6875,6.0957 1.73926,1.7431 3.30268,2.67267 4.64844,2.76367 0.6034,0.041 1.31927,0.0625 2.12695,0.0625 l 0.004,-0.002 c 4.95507,0 12.33172,-0.74394 19.73242,-1.99023 9.63539,-1.6226 19.22879,-4.04909 27.74409,-7.01758 9.3341,-3.2539 14.2414,-6.3309 19.4356,-9.58789 6.578,-4.1248 13.3794,-8.39064 29.5976,-13.42383 21.1235,-6.55559 52.5398,-17.61035 71.3106,-24.21485 6.1211,-2.15379 10.9571,-3.85524 13.664,-4.77734 5.0029,-1.7044 16.2337,-5.79571 28.125,-10.12891 14.3951,-5.24569 29.2802,-10.66967 35.8438,-12.85937 8.6434,-3.677 14.8489,-5.33422 18.5586,-6.32422 1.0404,-0.2776 1.8611,-0.49681 2.4961,-0.69531 1.0084,-0.3149 1.3308,-1.74457 1.4238,-2.88867 0.1191,-1.4675 -0.1113,-2.86982 -0.1113,-2.88282 l -0.024,-0.14257 0.016,-0.14258 c 0,-0.082 0.9718,-8.41818 -0.01,-25.03906 -0.4056,-6.8681 -4.0442,-25.32353 -10.5234,-53.3711 -4.7879,-20.72578 -9.5184,-39.71965 -9.7832,-40.78125 l -9.6387,-27.41797 -0.025,-0.0781 -0.016,-0.082 c 0,-0.0286 -0.5104,-2.89648 -1.6641,-6.17188 -1.4861,-4.21949 -3.3606,-7.20481 -5.4199,-8.63281 -5.1932,-3.6023 -13.4512,-4.49977 -13.5332,-4.50977 l -0.09,-0.01 -0.088,-0.0273 c -0.04,-0.0115 -4.0109,-1.17912 -9.6836,-3.26171 -5.2358,-1.9221 -13.0445,-5.04124 -20.5039,-8.99024 -5.6161,-2.9726 -8.7133,-5.24098 -10.9747,-6.89648 -1.7575,-1.2866 -3.026,-2.21661 -4.6445,-2.87891 -1.7031,-0.6971 -3.7941,-1.10056 -6.9902,-1.35156 -0.9812,-0.0772 -1.9415,-0.11719 -2.8535,-0.11719 z"
     style="fill:#fff4ff;fill-opacity:1;stroke-miterlimit:10"
     id="path6" />
  <path
     style="opacity:0.5;fill:#42210b;fill-opacity:1;stroke:#42210b;stroke-width:0;stroke-dasharray:none;stroke-opacity:1"
     d="m 518.70942,527.81 c -6.4987,0 -10.17399,2.0034 -14.06539,4.1245 -1.1662,0.6358 -2.3724,1.2932 -3.6553,1.8941 -5.999,2.8093 -14.7657,9.2927 -18.4472,12.7309 l -9.5908,9.8823 -0.2486,0.9934 -2.1848,1.79178 -1.0878,-1.80748 c -0.2872,-0.7652 -1.3624,-4.46691 -2.2423,-5.67301 -1.8259,-2.5031 -4.321,-4.0674 -7.4162,-4.6496 -1.7454,-0.3282 -4.3627,-1.1021 -7.6763,-2.0821 -4.595,-1.3586 -10.3135,-3.0495 -15.661,-4.0925 -4.308,-0.8406 -11.9022,-3.2778 -19.9423,-5.8581 -8.5183,-2.7339 -18.1732,-5.8326 -21.0815,-5.9546 -0.759,-0.032 -1.6489,-0.089 -2.6793,-0.156 -2.4944,-0.1612 -5.9106,-0.3819 -9.974,-0.3819 -4.17972,3e-4 -8.1799,0.2256 -12.22928,0.6892 -4.99469,0.5721 -9.99939,1.5164 -14.875,2.8067 -8.89929,2.3557 -16.07337,3.5383 -22.40308,4.5818 -7.55042,1.2443 -13.51428,2.2275 -19.32507,4.7019 l -0.47009,0.2002 -0.5083,-0.05 c -0.16333,-0.016 -16.51795,-1.5972 -33.27027,-1.5972 -8.20337,2e-4 -15.17541,0.3752 -20.72363,1.1147 -17.84436,3.2547 -46.57373,8.5928 -49.57727,9.4041 l -8.56348,5.4092 -7.8374,-7.1849 c -1.94446,-1.0466 -3.73706,-2.091 -5.47278,-3.1025 -4.41687,-2.5737 -8.58874,-5.0046 -14.3966,-6.9473 -3.31446,-1.1084 -6.4762,-1.6704 -9.39747,-1.6704 -2.87683,0 -5.47338,0.5332 -7.71814,1.585 l -0.33337,0.1558 c -1.94385,0.9069 -4.60608,2.1496 -6.88074,4.124 -2.60803,2.2639 -4.13195,4.9704 -4.65905,8.2739 -1.19849,7.5132 -0.28113,10.0337 3.58044,20.6419 0.40466,1.1115 0.82251,2.2595 1.27795,3.5227 l 40.53785,76.52 -1.18482,1.0427 c -2.01709,1.7754 -7.6261,6.9111 -9.33581,9.3235 1.01679,2.77988 5.47071,5.3932 6.78096,6.8139 l 23.18193,13.0032 c 0.0526,0.024 5.33313,2.3753 10.66479,4.8108 11.07739,5.0603 11.55066,5.5139 11.93042,5.8782 0.65064,0.6233 5.54578,3.6443 12.19727,5.2908 4.46777,1.1069 11.39062,4.7011 17.49853,7.872 3.49292,1.8135 6.79199,3.5264 8.59741,4.2027 3.81421,1.4297 5.29273,4.2436 6.27112,6.1057 0.27136,0.5166 0.67981,1.2937 0.89392,1.4587 1.3385,0.6363 2.5658,2.26 4.6128,5.0659 1.4823,2.032 3.32714,4.5611 4.57983,5.3431 3.45361,2.1574 6.51343,4.9482 11.0896,12.1831 2.42468,3.8327 9.52563,10.9113 15.79065,17.1567 5.27624,5.2598 9.83289,9.8022 11.68957,12.4109 3.97376,5.5828 16.50635,24.4946 17.03785,25.2971 l 0.0907,0.1367 0.0671,0.1499 c 0.0194,0.043 1.97254,4.3802 4.73767,8.729 4.69947,7.3911 7.56018,8.3482 8.57215,8.4165 0.58044,0.039 1.27319,0.059 2.05896,0.059 4.90271,0 12.21716,-0.7387 19.56634,-1.9763 9.58094,-1.6135 19.11854,-4.0256 27.58144,-6.9758 9.2277,-3.2171 14.0876,-6.2644 19.2326,-9.4908 6.6323,-4.1586 13.4904,-8.4592 29.833,-13.531 21.1056,-6.5502 52.5114,-17.6003 71.2757,-24.2028 6.1237,-2.1546 10.9605,-3.8565 13.6722,-4.7803 4.9928,-1.7007 16.2199,-5.792 28.1061,-10.1233 14.3723,-5.2373 29.232,-10.6523 35.829,-12.855 8.6903,-3.6941 14.9264,-5.3584 18.6566,-6.3537 1.029,-0.2747 1.8418,-0.4917 2.4569,-0.6839 0.2836,-0.088 0.6168,-0.7366 0.7225,-1.9853 0.114,-1.3455 -0.097,-2.657 -0.099,-2.6663 l -0.048,-0.2805 0.034,-0.2891 c 0.01,-0.082 0.9638,-8.3591 -0.011,-24.8618 -0.9625,-16.2991 -19.5116,-90.8872 -20.2685,-93.9243 l -9.6768,-27.5291 -0.028,-0.1628 c -0.01,-0.028 -0.5034,-2.8396 -1.6336,-6.04 -1.414,-4.0049 -3.1554,-6.8111 -5.0361,-8.1153 -4.9753,-3.4511 -12.988,-4.3298 -13.0671,-4.3381 l -0.1807,-0.019 -0.1743,-0.051 c -0.1624,-0.048 -4.0437,-1.1888 -9.7478,-3.2827 -5.2649,-1.9327 -13.117,-5.0711 -20.6259,-9.0462 -5.6803,-3.0066 -8.8115,-5.2988 -11.0977,-6.9724 -1.7637,-1.291 -2.9288,-2.144 -4.434,-2.76 -1.6017,-0.6555 -3.6023,-1.0388 -6.6893,-1.2813 -0.9557,-0.075 -1.8892,-0.1132 -2.7745,-0.113 v 0 m 0,-2 c 0.9233,-2e-4 1.8975,0.038 2.9312,0.1191 11.163,0.877 8.655,3.647 23,11.24 14.345,7.594 30,12.177 30,12.177 0,0 8.5259,0.887 14,4.6841 5.474,3.7959 7.5,15.4551 7.5,15.4551 l 9.653,27.4609 c 0,0 19.347,77.448 20.347,94.3809 1,16.9331 0,25.218 0,25.218 0,0 1,5.9551 -2,6.8921 -3,0.937 -10,2.3169 -21,7 -12,4 -53,19.2529 -64,23 -11,3.7471 -56.9741,20.302 -85,29 -29,9 -27.787,15.605 -49,23 -21.213,7.3948 -42.99991,9.4712 -50.00003,9 -7,-0.4729 -15,-18.323 -15,-18.323 0,0 -13,-19.6221 -17,-25.2419 -4,-5.6202 -23,-22.48 -27.54102,-29.658 -4.53911,-7.17749 -7.45806,-9.68159 -10.45806,-11.55569 -3,-1.873 -7,-9.3669 -9,-10.3029 -2,-0.937 -2,-5.6199 -7,-7.4939 -5,-1.8731 -19,-10.303 -25.875,-12.0061 -6.875,-1.7019 -12.125,-4.854 -13.09997,-5.7881 -0.974,-0.9339 -22.02503,-10.3059 -22.02503,-10.3059 l -24.17696,-13.30368 c 0,0 -8.82304,-6.36722 -6.60405,-9.49742 2.21901,-3.1308 9.646,-9.6679 9.646,-9.6679 l -39.86499,-75.25 c -5,-13.875 -6.41405,-16.427 -5,-25.291 1.41406,-8.864 9,-12.177 13,-14.0501 4.00013,-1.874 10.19618,-2.8096 18.59803,0 8.40197,2.8101 13.40197,6.5571 20.40197,10.303 l 6.89503,6.321 7.49292,-4.7329 c 1.88708,-0.7541 50.11206,-9.549 50.11206,-9.549 6.29968,-0.8433 13.72729,-1.1385 21.03503,-1.1387 17.05225,0 33.46497,1.6067 33.46497,1.6067 11,-4.6841 22.5,-4.2151 42,-9.377 19.50018,-5.1611 34.5001,-3.2678 40.353,-3.0229 5.852,0.2458 32.14699,10.0578 41.323,11.8479 9.1761,1.79 19.282,5.4121 23.324,6.1721 9.0322,1.699 11.0162,10.2317 11.0004,10.3035 l -4e-4,4e-4 v 0 c 2e-4,0 2e-4,0 4e-4,-4e-4 l 9.99959,-10.3035 c 4,-3.7471 13,-10.3042 19,-13.114 5.44431,-2.5498 9.52041,-6.2073 18.5688,-6.2073 z"
     id="path13" />
  <path
     style="opacity:0.5;fill:none;fill-opacity:0.4;stroke:#42210b;stroke-width:1.4;stroke-dasharray:none;stroke-opacity:1"
     d="m 275.14062,571.4372 c -0.0711,2.12242 0.48132,4.21916 1.58901,6.031 1.4718,2.83062 3.6885,5.20569 6.41099,6.869 2.5,1.6 15.5,8.6 30.5,7.6 15,-1 37.916,-5.9 46.458,-10.951 8.542,-5.051 19.01463,-10.24118 21.6756,-14.57418 2.661,-4.333 2.3664,-3.97482 2.3664,-3.97482 -0.028,5.205 -6,8 -14,13 -6.38199,3.989 -26.21799,11.5 -31,13"
     id="Pfad_545" />
  <path
     style="fill:none;fill-opacity:0.4;stroke:#42210b;stroke-opacity:0.4"
     d="m 519.14062,580.4372 c 1.12301,0 12.96801,-7.95 15.72001,-11.864 1.99499,-2.837 3.546,-4.955 4.69,-6.88 a 15.834,15.834 0 0 0 2.443,-7.361 c 0,0 -1.587,8.052 -4.85301,13.1 -3.266,5.048 -14.853,13 -14.853,13 h -3.147"
     id="Pfad_546" />
  <path
     style="opacity:0.5;fill:#42210b;fill-opacity:1;stroke:#42210b;stroke-width:1.35039;stroke-dasharray:none;stroke-opacity:1"
     d="m 284.79493,665.52136 c 7.87471,1.71542 19.28607,1.69843 27.85811,6.4174 8.57205,4.71896 19.04668,14.45634 28.08813,22.99142 9.04145,8.53507 13.05478,11.53593 16.17823,15.78023 3.12345,4.24429 16.95467,13.04218 16.95467,13.04218 0,0 20.52462,-1.44993 35.24885,-2.02561 4.15176,-0.1618 40.60169,2.74968 53.98745,10.7198 0,0 -18.2588,-8.27584 -30.12602,-9.93137 -11.86723,-1.65552 -27.38767,-1.65463 -38.34316,-0.82687 -10.34765,0.78128 -21.90992,0.82687 -21.90992,0.82687 0,0 -3.65114,-3.03215 -14.15491,-12.27431 -10.50378,-9.24215 -30.40183,-28.28695 -30.40183,-28.28695 0,0 -9.28188,-8.31964 -13.40346,-10.77522 -4.12157,-2.45557 -29.98134,-5.65757 -29.98134,-5.65757"
     id="Pfad_547" />
  <path
     d="m 226.28516,538.42353 c -4.86329,0.0293 -10.39454,0.63867 -15.64454,2.51367 -13.99999,5 -23,12 -25,15 -2,3 -3,7 -1,10 2,3 2.80641,3.17984 7.4004,3.08984 a 43.27,43.27 0 0 0 8.5996,-1.08984 c 1,0 10e-6,-13 9,-15 9,-2 12,-2 17,-4 5,-2 13.00086,-4.00016 16.25586,-5.91016 3.255,-1.90999 -1.25586,-3.08984 -2.25586,-3.08984 0,0 -6.25,-1.5625 -14.35546,-1.51367 z"
     style="fill:#fcd6ce"
     id="path5" />
  <path
     d="m 311.26757,537.12665 c -5.17478,0.0835 -11.98411,0.99805 -18.87303,3.81055 a 98.291,98.291 0 0 0 -23.75392,14 c -4,3 -5,9 -5,12 0,6.25399 12.48501,4.94 12,3 -1,-4 0.448,-7 0,-7 0,0 2.389,0.089 5,0 2.611,-0.089 5.00024,-0.99908 9.36523,-3.20508 4.365,-2.206 12.63478,-5.79492 19.63477,-8.79492 7,-3 11,-4 13,-5 2,-1 3,-3 2,-5 a 14.093,14.093 0 0 0 -5,-3 c -1.3125,-0.4375 -4.34821,-0.87549 -8.37305,-0.81055 z"
     style="fill:#fcd6ce"
     id="path4" />
  <path
     d="m 470.64062,556.9372 c -7.07099,0 -17,5 -24,10 -7,5 -16,13.00001 -20,19 -4,5.99999 -2,9 -2,9 0,0 4.3064,3.60078 13.1523,0.30078 8.846,-3.3 15.8477,-8.30078 16.8477,-9.30078 1,-1 11,-8 14,-10 3,-2 5,-4 6,-7 1,-3 2,-7.91503 1,-9.45703 -1,-1.542 -2,-2.54297 -5,-2.54297 z"
     style="fill:#fcd6ce"
     id="path3" />
  <path
     id="Pfad_554"
     data-name="Pfad 554"
     d="m 146.14062,579.4372 c -25.49999,2.5 -56.168995,4.259 -65.999995,5 -9.831,0.741 -28.5,0.427 -36.343,2.48 -7.843,2.053 -7.755,26.482 -7.755,26.482 0,0 -1.37,20.539 6.36,23.67 7.73,3.131 29.038,5.248 29.038,5.248 0,0 45.283005,10.077 69.700005,12.12"
     fill="#ffffff"
     stroke="#666666"
     stroke-miterlimit="10"
     stroke-width="1"
     style="stroke-width:1.8;stroke-dasharray:none" />
  <path
     id="Pfad_555"
     data-name="Pfad 555"
     d="m 134.14062,645.4372 c -24.417,-2.043 -55.499995,-5.5 -55.499995,-5.5 0,0 -25.269,-0.87 -33,-4 -7.731,-3.13 -6.6,-22.538 -6.6,-22.538 0,0 -0.084,-23.429 7.755,-25.482 7.839,-2.053 64.345005,1.52 89.344995,1.52 z"
     fill="#fcfcfc"
     stroke="#808080"
     stroke-miterlimit="10"
     stroke-width="0.75"
     style="stroke-width:1.8;stroke-dasharray:none" />
  <path
     id="Pfad_556"
     data-name="Pfad 556"
     d="m 132.14062,619.4372 c 0,0 -2.29499,29.779 5.365,33.965 7.66,4.186 29.063,6.3 29.063,6.3 0,0 16.17601,2.65 40.71901,4.521 24.543,1.871 93.147,0.946 122.129,1.766 28.982,0.82 94.553,9.212 123.307,13.516 28.75399,4.304 58.176,20.045 106.7,24.2 48.524,4.155 65.939,-10.587 71.413,-15.537 5.474,-4.95 15.30399,-12.731 18.30399,-37.731 2.87,-23.912 -9.981,-45.307 -14,-49.752 -5,-5.53 -21,-22.122 -69.653,-23.35 -48.653,-1.228 -79.347,11.183 -108.347,12.289 -29,1.106 -95,2.212 -123.911,-0.175 -28.911,-2.387 -97.089,-10.886 -121.678,-11.736 -24.589,-0.85 -40.924,0 -40.924,0 0,0 -21.487,-0.256 -29.487,3.062 -8,3.318 -9,38.662 -9,38.662 z"
     fill="#ffffff"
     stroke="#666666"
     stroke-miterlimit="10"
     stroke-width="1"
     style="stroke-width:1.8;stroke-dasharray:none" />
  <rect
     id="Rechteck_25"
     data-name="Rechteck 25"
     width="75"
     height="39"
     rx="5.1279998"
     transform="rotate(3.448)"
     fill="#e6e6e6"
     stroke="#808080"
     stroke-miterlimit="10"
     stroke-width="1"
     opacity="0.54"
     x="369.29776"
     y="586.06757"
     style="stroke-width:1.8;stroke-dasharray:none" />
  <path
     id="Pfad_557"
     data-name="Pfad 557"
     d="m 352.28662,629.5462 -3.953,-7.87 2.328,0.082 2.542,5.477 h 0.158 l 2.92201,-5.283 2.327,0.082 -4.5,7.572 z m -0.256,3.509 0.20001,-5.538 2.091,0.073 -0.20001,5.538 z"
     fill="#333333"
     style="stroke-width:1.8;stroke-dasharray:none" />
  <path
     id="Pfad_558"
     data-name="Pfad 558"
     d="m 359.93362,633.3372 0.4,-11.234 2.091,0.073 -0.39999,11.235 z m 0,0 0.062,-1.756 8.432,0.3 -0.061,1.756 z m 0.16801,-4.747 0.061,-1.756 6.852,0.242 -0.062,1.757 z m 0.167,-4.731 0.061,-1.756 8.433,0.3 -0.062,1.756 z"
     fill="#333333"
     style="stroke-width:1.8;stroke-dasharray:none" />
  <path
     id="Pfad_559"
     data-name="Pfad 559"
     d="m 374.07663,633.9922 a 12.787,12.787 0 0 1 -2.028,-0.23 9.177,9.177 0 0 1 -1.74501,-0.521 l 0.34901,-1.913 a 12.016,12.016 0 0 0 1.878,0.632 8.533,8.533 0 0 0 1.749,0.256 3.05,3.05 0 0 0 1.606,-0.279 1.09,1.09 0 0 0 0.575,-0.966 q 0.03,-0.846 -1.026,-1.328 l -1.911,-0.9 a 5.4,5.4 0 0 1 -1.968,-1.441 2.778,2.778 0 0 1 -0.641,-1.9 2.717,2.717 0 0 1 1.122,-2.241 4.717,4.717 0 0 1 2.975,-0.7 6.668,6.668 0 0 1 2.188,0.43 5.745,5.745 0 0 1 1.8,1.13 l -1.5,1.389 a 5.82,5.82 0 0 0 -1.285,-0.858 3.206,3.206 0 0 0 -1.259,-0.318 2.135,2.135 0 0 0 -1.3,0.291 1.144,1.144 0 0 0 -0.491,0.961 1.112,1.112 0 0 0 0.284,0.79 2.836,2.836 0 0 0 0.879,0.638 l 1.721,0.844 a 6.148,6.148 0 0 1 2.011,1.461 2.783,2.783 0 0 1 -0.585,4.1 5.984,5.984 0 0 1 -3.398,0.673 z"
     fill="#333333"
     style="stroke-width:1.8;stroke-dasharray:none" />
  <path
     id="Pfad_560"
     data-name="Pfad 560"
     d="m 380.97063,628.5982 0.09,-2.268 12.2,0.478 -0.089,2.269 z m 4.724,5.4 0.5,-12.661 2.342,0.092 -0.5,12.661 z"
     fill="#333333"
     style="stroke-width:1.8;stroke-dasharray:none" />
  <path
     d="m 632.90432,717.65595 c 0,0 -38.62719,12.83205 -76.2442,26.83203 -37.6169,13.99999 -54.1988,19.87102 -98.2988,34 -44.1,14.12899 -31.3934,19.77868 -65.9004,28.38867 -34.50695,8.60999 -44.26859,2.41134 -42.0996,10.61133 6.076,22.96098 -1.52292,27.67265 8.91407,49.64063 10.61499,22.34097 21.55963,27.32776 23.84763,40.84375 2.288,13.51598 135.0928,-16.63655 157.9258,-18.06055 22.833,-1.424 71.2395,-18.86553 83.6465,-21.64453 12.407,-2.779 44.4386,-9.7793 48.0996,-14.7793 3.661,-4.99999 -11.455,-33.22235 -16.252,-51.61133 -4.797,-18.38898 -15.0226,-81.0527 -23.6386,-84.2207 z"
     style="fill:#fcd6ce"
     id="path2" />
  <path
     d="m 155.0625,659.52509 c -1.11361,0.003 -2.07227,0.2057 -2.69727,0.79102 -1.16502,1.05236 -1.33862,1.30611 -0.87694,2.80664 2.15299,3.31399 10.15234,13.61538 20.15233,19.23437 10,5.619 28.58203,12.34282 36.79102,14.13281 8.20899,1.79 19.20898,0.85157 20.20898,0.85157 1,0 2.86172,-2.60281 1.20898,-3.35547 -9.70821,-4.42114 -21.52855,-10.48963 -30.81444,-15.39258 -9.00265,-4.75338 -15.62306,-8.41211 -15.62306,-8.41211 0,0 -6.13688,-6.47736 -6.79687,-7.74023 -0.60769,-1.16278 -10.83789,-1.95704 -13.83789,-1.95704 -2.0625,0 -5.26491,-0.96501 -7.71484,-0.95898 z"
     style="fill:#fcd6ce"
     id="path1" />
</svg>
