<?xml version="1.0" encoding="UTF-8" standalone="no"?>
<svg
   width="674.02734"
   height="764.23004"
   viewBox="0 0 674.02734 764.23004"
   version="1.1"
   id="svg7"
   sodipodi:docname="E3-2.svg"
   inkscape:version="1.3 (0e150ed6c4, 2023-07-21)"
   xmlns:inkscape="http://www.inkscape.org/namespaces/inkscape"
   xmlns:sodipodi="http://sodipodi.sourceforge.net/DTD/sodipodi-0.dtd"
   xmlns="http://www.w3.org/2000/svg"
   xmlns:svg="http://www.w3.org/2000/svg">
  <sodipodi:namedview
     id="namedview7"
     pagecolor="#505050"
     bordercolor="#eeeeee"
     borderopacity="1"
     inkscape:showpageshadow="0"
     inkscape:pageopacity="0"
     inkscape:pagecheckerboard="0"
     inkscape:deskcolor="#d1d1d1"
     inkscape:zoom="2"
     inkscape:cx="327.75"
     inkscape:cy="496.25"
     inkscape:window-width="1920"
     inkscape:window-height="1008"
     inkscape:window-x="1912"
     inkscape:window-y="-8"
     inkscape:window-maximized="1"
     inkscape:current-layer="svg7" />
  <defs
     id="defs2" />
  <ellipse
     cx="339.00562"
     cy="344.8197"
     rx="270.845"
     ry="333.77802"
     fill="none"
     id="ellipse6"
     style="display:none" />
  <ellipse
     cx="339.00562"
     cy="344.8197"
     rx="270.845"
     ry="333.77802"
     fill="none"
     id="ellipse4"
     style="display:inline;fill:#ccf4cc" />
  <path
     id="Pfad_1343"
     data-name="Pfad 1343"
     d="m 329.07762,484.57468 c 0.88901,-1.02 -11.56299,-14.287 -21.34699,-14.287 -9.784,0 -14.723,4.691 -12.453,8.164 5.337,8.164 12.86,2.385 18.679,3.061 5.81899,0.676 14.231,4.083 15.12099,3.062 z"
     fill="#42210b"
     style="display:inline;fill:#262100;fill-opacity:1;opacity:0.9" />
  <path
     id="Pfad_1347"
     data-name="Pfad 1347"
     d="m 386.06163,539.22968 a 150.4,150.4 0 0 0 -28.70001,-5.615 c -5.937,-0.7 -8.392,4.913 -18.21799,6.154 -9.826,-1.241 -12.281,-6.856 -18.218,-6.154 a 150.4,150.4 0 0 0 -28.7,5.615 c -12.732,3.694 -34.5,14.739 -34.5,17.546 0,2.807 47.88599,-4.979 65.308,-0.7 a 62.715,62.715 0 0 0 32.224,0 c 17.422,-4.277 65.308,3.509 65.308,0.7 0,-2.809 -21.772,-13.852 -34.504,-17.546 z"
     fill="#f79885"
     style="display:inline;fill:#b398c5;fill-opacity:1" />
  <path
     id="Pfad_1348"
     data-name="Pfad 1348"
     d="m 420.56063,561.99168 c -1.32,-1.916 -43.957,-0.191 -61.768,3.26 a 134.221,134.221 0 0 1 -19.65201,2.3 134.221,134.221 0 0 1 -19.652,-2.3 c -17.811,-3.451 -60.448,-5.176 -61.768,-3.26 -1.32,1.916 11.215,15.337 15.173,18.788 a 90.754,90.754 0 0 0 41.559,19.841 119.053,119.053 0 0 0 49.376,0 90.753,90.753 0 0 0 41.559,-19.841 c 3.953,-3.451 16.492,-16.871 15.17301,-18.788 z"
     fill="#f79885"
     style="display:inline;fill:#00d023;fill-opacity:1" />
  <path
     id="Pfad_1349"
     data-name="Pfad 1349"
     d="m 347.88463,484.57468 c -0.89,-1.02 11.563,-14.287 21.34699,-14.287 9.784,0 14.722,4.691 12.452,8.164 -5.336,8.164 -12.86,2.385 -18.678,3.061 -5.81799,0.676 -14.23199,4.083 -15.12099,3.062 z"
     fill="#42210b"
     style="display:inline;fill:#262100;fill-opacity:1;opacity:0.9" />
  <path
     d="m 381.32152,226.17412 c -7.8804,4.37968 -21.12173,10.1379 -17.30403,19.08479 3.16263,7.40979 16.08553,5.25487 23.95143,2.78263 7.866,-2.47222 7.7424,-7.23175 20.2968,-10.64362 12.5544,-3.41191 40.2563,3.45156 74.4267,19.04634 16.6942,7.61893 33.1362,22.46807 44.21521,30.84099 9.6808,7.31622 18.3558,-4.58056 11.1166,-17.22774 -7.6216,-13.31526 -89.6854,-45.98577 -114.1721,-49.40331 -24.4867,-3.41753 -34.6502,1.14023 -42.53061,5.51992 z"
     style="display:inline;fill:#e6b9cf;fill-opacity:1;stroke-width:1.0262"
     id="path181"
     sodipodi:nodetypes="zczzssszz" />
  <path
     d="m 282.92393,227.66041 c 7.90221,5.01245 21.2352,11.72769 17.02689,21.10205 -3.48614,7.76379 -16.61745,4.90456 -24.57039,1.92671 -7.95294,-2.97783 -7.66325,-8.04766 -20.37493,-12.23117 -12.71149,-4.18356 -41.25437,1.93166 -76.7071,17.07619 -17.32073,7.39887 -34.63182,22.51845 -46.24031,30.96533 -3.25224,2.36648 -6.33101,2.63141 -8.75511,1.46501 -5.13654,-2.47154 -7.33359,-11.3697 -2.0129,-20.31806 8.24537,-13.86711 93.22422,-45.13924 118.36337,-47.71963 25.13915,-2.58038 35.36826,2.7211 43.27048,7.73357 z"
     style="display:inline;fill:#e6b9cf;fill-opacity:1;stroke-width:1.07193"
     id="path278"
     sodipodi:nodetypes="zczzsssszz" />
  <path
     id="path179"
     style="display:inline;fill:#e6b9cf;fill-opacity:1"
     d="M 344.60157,0.0075092 C 82.815085,-1.3924908 5.0000001e-6,193.32499 -4.9999999e-6,405.67157 -4.9999999e-6,624.87113 53.511385,722.53852 103.26503,763.77751 c 14.10596,-13.52847 25.78049,-41.04391 25.78049,-41.04391 0,0 39.16596,16.0682 74.48964,25.29733 3.682,-7.1284 -52.70314,-110.06938 -70.7464,-132.01277 -6.3056,-12.6112 2.52815,-99.78136 5.57078,-161.9734 1.61205,-32.95066 -25.03008,-75.98693 -21.39529,-116.23692 2.63286,-29.15503 31.11068,-52.65525 44.91857,-81.80619 18.51482,-39.08812 9.98634,-129.61836 63.61523,-158.029301 33.90428,-19.38624 47.7461,-10.41211 47.7461,-10.41211 l 7.32812,-6.29883 -1.61523,2.7793 c 5.2169,-7.78647 24.77653,-25.25238 88.2539,6.64063 28.93079,14.535751 81.17589,58.782111 99.97209,79.729101 18.7409,20.88537 40.6371,93.5424 53.2572,115.43555 13.7493,23.85211 25.7539,54.50887 6.3275,139.92443 -4.8505,21.32719 16.3841,93.01575 17.324,119.81717 -3.3354,36.60638 -37.1672,101.89994 -41.6796,110.92382 -9.558,19.11498 -41.2579,80.3634 -54.5454,107.28681 4.211,4.91298 61.9775,-33.4688 77.4185,-45.39978 6.9547,16.16339 8.2713,23.19602 22.8497,37.10277 35.7916,-20.03438 125.8924,-130.42408 125.8924,-349.62066 0,-208.19358 -79.6215,-399.4366708 -329.46092,-405.5136708 z M 278.95704,84.040709 c -1.21218,1.80921 -1.89649,3.26172 -1.89649,3.26172 z"
     sodipodi:nodetypes="csccccsssccccsssscccccsccccc" />
  <path
     d="m 457.33403,316.63837 c -14.856,0 -26.8985,16.04145 -26.8985,30.89843 a 26.9,26.9 0 1 0 53.7989,0 c 0,-14.85698 -12.0445,-30.89843 -26.9004,-30.89843 z"
     style="fill:#262100"
     id="path54" />
  <path
     d="m 455.69923,289.88837 c -11.887,0.18442 -23.2727,5.74905 -32.8887,12.40625 -10.9897,7.60821 -19.7543,16.73725 -24.289,21.27148 -0.5857,0.58576 -0.5857,1.53534 0,2.1211 0.5857,0.58563 1.5353,0.58563 2.1211,0 4.5891,-4.58876 13.1954,-13.53229 23.87499,-20.92579 10.6794,-7.39348 23.3473,-13.1427 35.94721,-11.63086 20.8115,2.49711 32.56289,11.97411 39.4238,19.51954 4.1822,4.62467 7.72679,9.78856 10.53909,15.35351 0.37371,0.73952 1.27621,1.03599 2.0156,0.66211 0.73961,-0.37369 1.03601,-1.2762 0.6621,-2.01562 -2.9337,-5.80517 -6.6311,-11.19159 -10.99409,-16.01563 v -0.002 c -7.1749,-7.89054 -19.71061,-17.89159 -41.2871,-20.48047 -1.7148,-0.20577 -3.425,-0.29002 -5.1231,-0.26367 z"
     style="fill:#262100;stroke-linecap:round;stroke-miterlimit:10"
     id="path17" />
  <path
     d="m 461.14062,352.20868 a 5,5 0 0 0 -5,5 5,5 0 0 0 5,5 5,5 0 0 0 5,-5 5,5 0 0 0 -5,-5 z"
     style="fill:#ffffff"
     id="path51" />
  <path
     d="m 410.14062,317.20868 1.6504,3.24609 11.11131,9.05469 1.3828,-1.26172 c 0,0 -2.6767,-0.23489 -3.7207,-1.71289 -0.71701,-1.016 -5.6833,-4.58653 -8.0293,-6.76953 -1.066,-0.993 -2.39451,-2.55664 -2.39451,-2.55664 z"
     style="fill:#262100"
     id="path50" />
  <path
     d="m 420.81253,299.02118 1.17969,4.30664 10.414,18.08008 2.3028,-1.2168 c 0,0 -3.7118,-2.54021 -4.4688,-5.0332 -0.521,-1.714 -4.862,-6.27657 -7.248,-11.85156 -0.814,-1.903 -2.1797,-4.28516 -2.17969,-4.28516 z"
     style="fill:#262100"
     id="path49" />
  <path
     d="m 401.94332,330.82001 1.8164,2.45898 11.75201,9.16602 1.48049,-1.25781 c 0,0 -3.351,-0.80685 -4.459,-2.21485 -0.761,-0.969 -5.0215,-2.91993 -8.0215,-5.91992 -1.024,-1.024 -2.5684,-2.23242 -2.5684,-2.23242 z"
     style="fill:#262100"
     id="path48" />
  <path
     d="m 406.14062,325.20868 1.64651,2.26562 10.6875,8.5 1.3594,-1.14648 c 0,0 -3.0586,-0.7625 -4.0586,-2.0625 -0.694,-0.895 -4.57581,-2.71129 -7.3008,-5.48828 -0.934,-0.948 -2.33401,-2.06836 -2.33401,-2.06836 z"
     style="fill:#262100"
     id="path47" />
  <path
     d="m 430.06642,289.35321 2.0742,7.85547 9.53131,19.33789 2.93159,-1.06055 c 0,0 -3.8189,-2.32535 -4.4629,-5.27734 -0.44299,-2.029 -5.817,-11.12301 -8,-16 -0.99299,-2.218 -2.0742,-4.85547 -2.0742,-4.85547 z"
     style="fill:#262100"
     id="path46" />
  <path
     d="m 441.55083,283.62079 1.58979,8.58789 7.35941,20.78711 3.22849,-0.61914 c 0,0 -4.2669,-3.07498 -4.5879,-6.16797 -0.221,-2.126 -4.288,-11.71501 -6,-17 -0.779,-2.404 -1.58979,-5.58789 -1.58979,-5.58789 z"
     style="fill:#262100"
     id="path45" />
  <path
     d="m 455.14062,280.20673 -0.2363,9.19922 0.10741,23.71093 3.3027,-0.29883 c 0,0 -1.9675,-7.04355 -1.3535,-10.43554 0.42,-2.329 -1.2033,-12.06801 -1.2793,-18 0.022,-1.41071 -0.1607,-2.81714 -0.54101,-4.17578 z"
     style="fill:#262100"
     id="path44" />
  <path
     d="m 413.14062,307.20868 0.9668,3.08789 11.752,14.74023 1.7812,-1.36523 c 0,0 -3.533,-1.40489 -4.5,-3.46289 -0.665,-1.414 -5.65,-7.82201 -8,-11 -0.5405,-0.78188 -1.2181,-1.45947 -2,-2 z"
     style="fill:#262100"
     id="path43" />
  <path
     d="m 504.14062,314.20868 c -0.6937,0.48553 -1.31449,1.06757 -1.84369,1.72852 -2.24,2.66999 -4.0986,4.45162 -4.7286,5.64062 -0.922,1.728 -7.2519,6.46094 -7.2519,6.46094 l 1.5,0.16992 6.5722,-5.90039 z"
     style="fill:#262100"
     id="path42" />
  <path
     d="m 491.40822,293.8786 c -0.7345,0.80996 -1.3483,1.72171 -1.8223,2.70703 -2.079,4.049 -6.5991,10.25648 -7.0801,11.98047 -0.7,2.508 -4.5527,6.76563 -4.5527,6.76563 l 1.1875,0.87695 7,-12 z"
     style="fill:#262100"
     id="path41"
     inkscape:label="path41" />
  <path
     d="m 480.17383,288.20868 c -0.62111,0.95965 -1.1013,2.0035 -1.4258,3.09961 -1.508,4.59999 -3.60741,10.90039 -4.60741,12.90039 -1.26999,2.53999 -4.31639,8.5 -4.31639,8.5 l 2.3906,1.16406 6.92579,-20.66406 z"
     style="fill:#262100"
     id="path40" />
  <path
     d="m 469.14062,282.20868 c -0.57629,1.13387 -0.9861,2.34489 -1.21679,3.5957 -1.116,5.23399 -4.2715,13.55337 -4.3125,15.69336 -0.059,3.112 -3.0391,8.98633 -3.0391,8.98633 l 2.56839,0.72461 4,-18 z"
     style="fill:#262100"
     id="path39" />
  <path
     d="m 500.31642,304.20868 c 0,0 -2.1068,2.555 -3.1758,4 -2.34999,3.17799 -5.8252,5.89941 -6.49019,7.31641 -0.96701,2.05799 -4.83401,5.14648 -4.83401,5.14648 l 1.3242,0.53711 12.20901,-13.91211 z"
     style="fill:#262100"
     id="path38" />
  <path
     d="m 507.39452,325.04852 c 0,0 -1.9686,1.55436 -2.9746,2.44336 -2.211,1.954 -5.3783,3.53174 -6.0313,4.42774 -0.948,1.29999 -4.4746,3.09179 -4.4746,3.09179 l 1.127,0.44727 11.3535,-8.42383 z"
     style="fill:#262100"
     id="path37" />
  <path
     d="m 512.98443,332.92938 c 0,0 -2.145,1.29969 -3.254,2.05469 -2.437,1.663 -5.7761,2.83363 -6.5351,3.64063 -1.1,1.17399 -4.8262,2.51171 -4.8262,2.51171 l 1.0586,0.58399 12.3164,-6.94336 z"
     style="fill:#262100"
     id="path36" />
  <path
     d="m 170.26954,317.20868 1.65039,3.24609 11.11328,9.05469 1.38086,-1.26172 c 0,0 -2.67772,-0.23489 -3.72072,-1.71289 -0.71799,-1.016 -5.6843,-4.58653 -8.02928,-6.76953 -1.067,-0.993 -2.39453,-2.55664 -2.39453,-2.55664 z"
     style="fill:#262100"
     id="path35" />
  <path
     d="m 180.94727,299.02118 1.17969,4.30664 10.41406,18.08008 2.30273,-1.2168 c 0,0 -3.71075,-2.54021 -4.46875,-5.0332 -0.52099,-1.714 -4.86205,-6.27657 -7.24804,-11.85156 -0.81501,-1.903 -2.17969,-4.28516 -2.17969,-4.28516 z"
     style="fill:#262100"
     id="path34" />
  <path
     d="m 162.07227,330.82001 1.81641,2.45898 11.75194,9.16602 1.48047,-1.25781 c 0,0 -3.35099,-0.80685 -4.45899,-2.21485 -0.76099,-0.969 -5.02344,-2.91993 -8.02342,-5.91992 -1.024,-1.024 -2.56641,-2.23242 -2.56641,-2.23242 z"
     style="fill:#262100"
     id="path33" />
  <path
     d="m 166.26954,325.20868 1.64842,2.26562 10.68556,8.5 1.36132,-1.14648 c 0,0 -3.05555,-0.7625 -4.06055,-2.0625 -0.7,-0.895 -4.57383,-2.71129 -7.29883,-5.48828 -0.93499,-0.948 -2.33592,-2.06836 -2.33592,-2.06836 z"
     style="fill:#262100"
     id="path32" />
  <path
     d="m 190.19727,289.35321 2.07227,7.85547 9.53125,19.33789 2.93164,-1.06055 c 0,0 -3.8179,-2.32535 -4.46289,-5.27734 -0.443,-2.029 -5.81701,-11.12301 -8,-16 -0.992,-2.218 -2.07227,-4.85547 -2.07227,-4.85547 z"
     style="fill:#262100"
     id="path31" />
  <path
     d="m 201.67968,283.62079 1.58985,8.58789 7.35937,20.78711 3.22852,-0.61914 c 0,0 -4.26689,-3.07498 -4.58789,-6.16797 -0.221,-2.126 -4.28701,-11.71501 -6,-17 -0.778,-2.404 -1.58985,-5.58789 -1.58985,-5.58789 z"
     style="fill:#262100"
     id="path30" />
  <path
     d="m 215.26954,280.20673 -0.23633,9.19922 0.10742,23.71093 3.30273,-0.29883 c 0,0 -1.96751,-7.04355 -1.35351,-10.43554 0.42,-2.329 -1.2033,-12.06801 -1.2793,-18 0.0216,-1.41071 -0.16065,-2.81715 -0.54101,-4.17578 z"
     style="fill:#262100"
     id="path29" />
  <path
     d="m 173.27343,307.20868 0.9668,3.08789 11.75,14.74023 1.7832,-1.36523 c 0,0 -3.533,-1.40489 -4.5,-3.46289 -0.664,-1.414 -5.65,-7.82201 -8,-11 -0.54024,-0.78212 -1.21788,-1.45976 -2,-2 z"
     style="fill:#262100"
     id="path28" />
  <path
     d="m 264.26562,314.20868 c -0.69372,0.48547 -1.31457,1.06752 -1.84375,1.72852 -2.24,2.66999 -4.09852,4.45162 -4.72852,5.64062 -0.92199,1.728 -7.25194,6.46094 -7.25194,6.46094 l 1.5,0.16992 6.57227,-5.90039 z"
     style="fill:#262100"
     id="path27" />
  <path
     d="m 251.5371,293.8786 c -0.7345,0.80997 -1.34825,1.72172 -1.82226,2.70703 -2.07899,4.049 -6.60008,10.25648 -7.08007,11.98047 -0.70601,2.508 -4.55273,6.76563 -4.55273,6.76563 l 1.1875,0.87695 7,-12 z"
     style="fill:#262100"
     id="path26" />
  <path
     d="m 240.30273,288.20868 c -0.62085,0.95981 -1.10099,2.00362 -1.42578,3.09961 -1.50899,4.59999 -3.60742,10.90039 -4.60741,12.90039 -1.27,2.53999 -4.31642,8.5 -4.31642,8.5 l 2.38672,1.16406 6.9297,-20.66406 z"
     style="fill:#262100"
     id="path25" />
  <path
     d="m 229.26954,282.20868 c -0.57526,1.13412 -0.98441,2.34509 -1.21485,3.5957 -1.116,5.23399 -4.27345,13.55337 -4.31445,15.69336 -0.059,3.112 -3.03711,8.98633 -3.03711,8.98633 l 2.56641,0.72461 4,-18 z"
     style="fill:#262100"
     id="path24" />
  <path
     d="m 260.44141,304.20868 c 0,0 -2.10874,2.555 -3.17773,4 -2.34901,3.17799 -5.82524,5.89941 -6.49024,7.31641 -0.966,2.05799 -4.83203,5.14648 -4.83203,5.14648 l 1.32813,0.53711 12.20898,-13.91211 z"
     style="fill:#262100"
     id="path23" />
  <path
     d="m 267.52343,325.04852 c 0,0 -1.96961,1.55436 -2.97461,2.44336 -2.21099,1.954 -5.37925,3.53174 -6.03125,4.42774 -0.94899,1.29999 -4.47655,3.09179 -4.47655,3.09179 l 1.12694,0.44727 11.35547,-8.42383 z"
     style="fill:#262100"
     id="path22" />
  <path
     d="m 273.11523,332.92938 c 0,0 -2.14685,1.29969 -3.25586,2.05469 -2.437,1.663 -5.77616,2.83363 -6.53516,3.64063 -1.1,1.17399 -4.82617,2.51171 -4.82617,2.51171 l 1.06055,0.58399 12.31445,-6.94336 z"
     style="fill:#262100"
     id="path21" />
  <path
     d="m 457.70702,309.54657 c -8.98409,0.0146 -18.3574,3.69512 -29.5664,12.66211 -5.441,4.353 -12.99919,14.99922 -19.24219,19.94922 -12.982,10.28799 -7.7206,6.31847 -16.1426,11.23047 -4.471,2.60999 -10.6394,1.39609 -10.9004,3.12109 v 0 c -0.1309,0.836 -1.1009,1.88242 0,2.23242 1.048,0.34 8.4041,5.32942 31.9571,-10.97656 18.247,-12.63299 21.1691,-22.6625 31.32809,-25.5625 6.12201,-1.742 18.51251,-7.5546 35.3125,3.40039 15.97701,10.42199 25.42721,38.12517 37.40821,37.20117 1.07099,-0.082 4.0733,-0.53133 4.6113,-0.61133 4.298,-0.64199 15.5905,-2.32704 15.5645,-3.87304 -0.019,-1.194 -11.26421,-1.93519 -13.4492,-2.24219 -21.11401,-2.963 -20.4504,-25.86923 -39.6504,-37.19922 -9.65451,-5.69549 -18.2503,-9.34665 -27.23441,-9.33203 z"
     style="fill:#262100"
     id="path20" />
  <path
     d="m 218.33984,316.13837 c -14.85599,0 -26.89844,16.04145 -26.89844,30.89843 a 26.9,26.9 0 1 0 53.79883,0 c 0,-14.85698 -12.04441,-30.89843 -26.90039,-30.89843 z"
     style="fill:#262100"
     id="path19" />
  <path
     d="m 219.9746,289.38837 c -1.69813,-0.0263 -3.4062,0.0579 -5.12108,0.26367 -21.57546,2.58889 -34.11027,12.58993 -41.28517,20.48047 h -0.002 l -0.002,0.002 c -4.36296,4.82404 -8.06045,10.21044 -10.99414,16.01563 a 1.5,1.5 0 0 0 0.66211,2.01562 1.5,1.5 0 0 0 2.01562,-0.66211 c 2.81213,-5.5646 6.3573,-10.72908 10.53906,-15.35351 l 0.004,-0.004 c 6.86156,-7.54483 18.61284,-17.01893 39.41992,-19.51563 12.59988,-1.51184 25.26763,4.23737 35.94727,11.63086 10.67964,7.39351 19.28437,16.3371 23.87304,20.92579 a 1.5,1.5 0 0 0 2.12109,0 1.5,1.5 0 0 0 0,-2.1211 c -4.53431,-4.5343 -13.29728,-13.66326 -24.28711,-21.27148 -9.61608,-6.65721 -21.00356,-12.22184 -32.89062,-12.40625 z"
     style="fill:#262100;stroke-linecap:round;stroke-miterlimit:10"
     id="path16" />
  <path
     d="m 223.14062,352.20868 a 5,5 0 0 0 -5,5 5,5 0 0 0 5,5 5,5 0 0 0 5,-5 5,5 0 0 0 -5,-5 z"
     style="fill:#ffffff"
     id="path14" />
  <path
     d="m 446.53713,348.98212 a 3.5,3.5 0 0 0 -3.5,3.5 3.5,3.5 0 0 0 3.5,3.5 3.5,3.5 0 0 0 3.5,-3.5 3.5,3.5 0 0 0 -3.5,-3.5 z"
     style="fill:#ffffff"
     id="path12" />
  <path
     d="m 208.5371,348.98212 a 3.5,3.5 0 0 0 -3.5,3.5 3.5,3.5 0 0 0 3.5,3.5 3.5,3.5 0 0 0 3.5,-3.5 3.5,3.5 0 0 0 -3.5,-3.5 z"
     style="fill:#ffffff"
     id="path11" />
  <path
     d="m 217.97266,309.05048 c -8.98411,-0.0146 -17.57988,3.63653 -27.23437,9.33203 -19.19998,11.32999 -18.53742,34.23622 -39.6504,37.19922 -2.186,0.307 -13.43218,1.04819 -13.45118,2.24218 -0.025,1.546 11.26841,3.23105 15.56641,3.87305 0.53701,0.08 3.54034,0.52933 4.61133,0.61133 11.98099,0.924 21.42926,-26.77918 37.40625,-37.20117 16.79998,-10.95499 29.19246,-5.14239 35.31445,-3.40039 10.15899,2.89999 13.08014,12.92951 31.32813,25.5625 23.55297,16.30598 30.90903,11.31656 31.95703,10.97656 1.098,-0.354 0.127,-1.40033 0,-2.23633 -0.261,-1.725 -6.4294,-0.5111 -10.90039,-3.12109 -8.42199,-4.912 -3.15964,-0.94248 -16.14063,-11.23047 -6.24099,-4.946 -13.80119,-15.59232 -19.24219,-19.94531 -11.20898,-8.96699 -20.58033,-12.64749 -29.56444,-12.66211 z"
     style="display:inline;fill:#262100"
     id="path10" />
</svg>
