<?xml version="1.0" encoding="UTF-8" standalone="no"?>
<!-- Created with Inkscape (http://www.inkscape.org/) -->

<svg
   width="1115.566"
   height="161.41422"
   viewBox="0 0 1115.566 161.41422"
   version="1.1"
   id="svg1"
   xml:space="preserve"
   inkscape:version="1.4.2 (ebf0e940, 2025-05-08)"
   sodipodi:docname="pregnancy-stages.svg"
   inkscape:export-filename="icons-pregnancy-stages.png"
   inkscape:export-xdpi="96"
   inkscape:export-ydpi="96"
   xmlns:inkscape="http://www.inkscape.org/namespaces/inkscape"
   xmlns:sodipodi="http://sodipodi.sourceforge.net/DTD/sodipodi-0.dtd"
   xmlns="http://www.w3.org/2000/svg"
   xmlns:svg="http://www.w3.org/2000/svg"><sodipodi:namedview
     id="namedview1"
     pagecolor="#505050"
     bordercolor="#eeeeee"
     borderopacity="1"
     inkscape:showpageshadow="0"
     inkscape:pageopacity="0"
     inkscape:pagecheckerboard="0"
     inkscape:deskcolor="#d1d1d1"
     inkscape:document-units="px"
     inkscape:zoom="0.94002944"
     inkscape:cx="637.21409"
     inkscape:cy="34.041487"
     inkscape:window-width="1648"
     inkscape:window-height="713"
     inkscape:window-x="0"
     inkscape:window-y="33"
     inkscape:window-maximized="0"
     inkscape:current-layer="layer3"
     showgrid="true"
     showguides="true"><inkscape:grid
       id="grid4"
       units="px"
       originx="-78.100502"
       originy="-59.071068"
       spacingx="1"
       spacingy="1"
       empcolor="#0099e5"
       empopacity="0.30196078"
       color="#0099e5"
       opacity="0.14901961"
       empspacing="5"
       dotted="false"
       gridanglex="30"
       gridanglez="30"
       visible="true" /><sodipodi:guide
       position="859.8995,-391.51471"
       orientation="0,-1"
       id="guide49"
       inkscape:locked="false" /><sodipodi:guide
       position="999.49995,15.914216"
       orientation="0,-1"
       id="guide51"
       inkscape:locked="false" /></sodipodi:namedview><defs
     id="defs1"><inkscape:path-effect
       effect="fillet_chamfer"
       id="path-effect48"
       is_visible="true"
       lpeversion="1"
       nodesatellites_param="F,0,0,1,0,0,0,1 @ F,0,0,1,0,0,0,1 @ F,0,0,1,0,0,0,1 @ F,0,0,1,0,0,0,1 @ F,0,0,1,0,0,0,1"
       radius="0"
       unit="px"
       method="auto"
       mode="F"
       chamfer_steps="1"
       flexible="false"
       use_knot_distance="true"
       apply_no_radius="true"
       apply_with_radius="true"
       only_selected="false"
       hide_knots="false" /><inkscape:path-effect
       effect="fillet_chamfer"
       id="path-effect46"
       is_visible="true"
       lpeversion="1"
       nodesatellites_param="F,0,0,1,0,0,0,1 @ F,0,0,1,0,0,0,1 @ F,0,0,1,0,0,0,1 @ F,0,0,1,0,0,0,1 @ F,0,0,1,0,0,0,1"
       radius="0"
       unit="px"
       method="auto"
       mode="F"
       chamfer_steps="1"
       flexible="false"
       use_knot_distance="true"
       apply_no_radius="true"
       apply_with_radius="true"
       only_selected="false"
       hide_knots="false" /><inkscape:path-effect
       effect="fillet_chamfer"
       id="path-effect44"
       is_visible="true"
       lpeversion="1"
       nodesatellites_param="F,0,0,1,0,0,0,1 @ F,0,0,1,0,0,0,1 @ F,0,0,1,0,0,0,1 @ F,0,0,1,0,0,0,1 @ F,0,0,1,0,0,0,1"
       radius="0"
       unit="px"
       method="auto"
       mode="F"
       chamfer_steps="1"
       flexible="false"
       use_knot_distance="true"
       apply_no_radius="true"
       apply_with_radius="true"
       only_selected="false"
       hide_knots="false" /><inkscape:path-effect
       effect="fillet_chamfer"
       id="path-effect42"
       is_visible="true"
       lpeversion="1"
       nodesatellites_param="F,0,0,1,0,0,0,1 @ F,0,0,1,0,0,0,1 @ F,0,0,1,0,9.5997646,0,1 @ F,0,0,1,0,0,0,1 @ F,0,0,1,0,0,0,1"
       radius="0"
       unit="px"
       method="auto"
       mode="F"
       chamfer_steps="1"
       flexible="false"
       use_knot_distance="true"
       apply_no_radius="true"
       apply_with_radius="true"
       only_selected="false"
       hide_knots="false" /><inkscape:path-effect
       effect="fillet_chamfer"
       id="path-effect40"
       is_visible="true"
       lpeversion="1"
       nodesatellites_param="F,0,0,1,0,0,0,1 @ F,0,0,1,0,0,0,1 @ F,0,0,1,0,0,0,1 @ F,0,0,1,0,0,0,1 @ F,0,0,1,0,0,0,1"
       radius="0"
       unit="px"
       method="auto"
       mode="F"
       chamfer_steps="1"
       flexible="false"
       use_knot_distance="true"
       apply_no_radius="true"
       apply_with_radius="true"
       only_selected="false"
       hide_knots="false" /><inkscape:path-effect
       effect="fillet_chamfer"
       id="path-effect17"
       is_visible="true"
       lpeversion="1"
       nodesatellites_param="F,0,0,1,0,0,0,1 @ F,0,0,1,0,0,0,1 @ F,0,0,1,0,0,0,1 @ F,0,0,1,0,0,0,1 @ F,0,0,1,0,0,0,1"
       radius="0"
       unit="px"
       method="auto"
       mode="F"
       chamfer_steps="1"
       flexible="false"
       use_knot_distance="true"
       apply_no_radius="true"
       apply_with_radius="true"
       only_selected="false"
       hide_knots="false" /><inkscape:path-effect
       effect="fillet_chamfer"
       id="path-effect14"
       is_visible="true"
       lpeversion="1"
       nodesatellites_param="F,0,0,1,0,0,0,1 @ F,0,0,1,0,0,0,1 @ F,0,0,1,0,0,0,1 @ F,0,0,1,0,0,0,1 @ F,0,0,1,0,0,0,1"
       radius="0"
       unit="px"
       method="auto"
       mode="F"
       chamfer_steps="1"
       flexible="false"
       use_knot_distance="true"
       apply_no_radius="true"
       apply_with_radius="true"
       only_selected="false"
       hide_knots="false" /><inkscape:path-effect
       effect="fillet_chamfer"
       id="path-effect5"
       is_visible="true"
       lpeversion="1"
       nodesatellites_param="F,0,0,1,0,0,0,1 @ F,0,0,1,0,0,0,1 @ F,0,0,1,0,0,0,1 @ F,0,0,1,0,0,0,1 @ F,0,0,1,0,0,0,1"
       radius="0"
       unit="px"
       method="auto"
       mode="F"
       chamfer_steps="1"
       flexible="false"
       use_knot_distance="true"
       apply_no_radius="true"
       apply_with_radius="true"
       only_selected="false"
       hide_knots="false" /><inkscape:path-effect
       effect="fillet_chamfer"
       id="path-effect15"
       is_visible="true"
       lpeversion="1"
       nodesatellites_param="F,0,0,1,0,0,0,1 @ F,0,0,1,0,0,0,1 @ F,0,0,1,0,0,0,1 @ F,0,0,1,0,0,0,1 @ F,0,0,1,0,0,0,1"
       radius="0"
       unit="px"
       method="auto"
       mode="F"
       chamfer_steps="1"
       flexible="false"
       use_knot_distance="true"
       apply_no_radius="true"
       apply_with_radius="true"
       only_selected="false"
       hide_knots="false" /><inkscape:path-effect
       effect="fillet_chamfer"
       id="path-effect12"
       is_visible="true"
       lpeversion="1"
       nodesatellites_param="F,0,0,1,0,0,0,1 @ F,0,0,1,0,0,0,1 @ F,0,0,1,0,9.5997646,0,1 @ F,0,0,1,0,0,0,1 @ F,0,0,1,0,0,0,1"
       radius="0"
       unit="px"
       method="auto"
       mode="F"
       chamfer_steps="1"
       flexible="false"
       use_knot_distance="true"
       apply_no_radius="true"
       apply_with_radius="true"
       only_selected="false"
       hide_knots="false" /><linearGradient
       id="swatch7"><stop
         style="stop-color:#000000;stop-opacity:1;"
         offset="0"
         id="stop7" /></linearGradient><inkscape:path-effect
       effect="fillet_chamfer"
       id="path-effect7"
       is_visible="true"
       lpeversion="1"
       nodesatellites_param="F,0,0,1,0,0,0,1 @ F,0,0,1,0,0,0,1 @ F,0,0,1,0,0,0,1 @ F,0,0,1,0,0,0,1 @ F,0,0,1,0,0,0,1"
       radius="0"
       unit="px"
       method="auto"
       mode="F"
       chamfer_steps="1"
       flexible="false"
       use_knot_distance="true"
       apply_no_radius="true"
       apply_with_radius="true"
       only_selected="false"
       hide_knots="false" /><inkscape:path-effect
       effect="fillet_chamfer"
       id="path-effect12-1"
       is_visible="true"
       lpeversion="1"
       nodesatellites_param="F,0,0,1,0,0,0,1 @ F,0,0,1,0,0,0,1 @ F,0,0,1,0,0,0,1 @ F,0,0,1,0,0,0,1 @ F,0,0,1,0,0,0,1"
       radius="0"
       unit="px"
       method="auto"
       mode="F"
       chamfer_steps="1"
       flexible="false"
       use_knot_distance="true"
       apply_no_radius="true"
       apply_with_radius="true"
       only_selected="false"
       hide_knots="false" /><inkscape:path-effect
       effect="fillet_chamfer"
       id="path-effect12-1-9"
       is_visible="true"
       lpeversion="1"
       nodesatellites_param="F,0,0,1,0,0,0,1 @ F,0,0,1,0,0,0,1 @ F,0,0,1,0,0,0,1 @ F,0,0,1,0,0,0,1 @ F,0,0,1,0,0,0,1"
       radius="0"
       unit="px"
       method="auto"
       mode="F"
       chamfer_steps="1"
       flexible="false"
       use_knot_distance="true"
       apply_no_radius="true"
       apply_with_radius="true"
       only_selected="false"
       hide_knots="false" /><inkscape:path-effect
       effect="fillet_chamfer"
       id="path-effect40-1"
       is_visible="true"
       lpeversion="1"
       nodesatellites_param="F,0,0,1,0,0,0,1 @ F,0,0,1,0,0,0,1 @ F,0,0,1,0,0,0,1 @ F,0,0,1,0,0,0,1 @ F,0,0,1,0,0,0,1"
       radius="0"
       unit="px"
       method="auto"
       mode="F"
       chamfer_steps="1"
       flexible="false"
       use_knot_distance="true"
       apply_no_radius="true"
       apply_with_radius="true"
       only_selected="false"
       hide_knots="false" /><inkscape:path-effect
       effect="fillet_chamfer"
       id="path-effect42-6"
       is_visible="true"
       lpeversion="1"
       nodesatellites_param="F,0,0,1,0,0,0,1 @ F,0,0,1,0,0,0,1 @ F,0,0,1,0,9.5997646,0,1 @ F,0,0,1,0,0,0,1 @ F,0,0,1,0,0,0,1"
       radius="0"
       unit="px"
       method="auto"
       mode="F"
       chamfer_steps="1"
       flexible="false"
       use_knot_distance="true"
       apply_no_radius="true"
       apply_with_radius="true"
       only_selected="false"
       hide_knots="false" /><inkscape:path-effect
       effect="fillet_chamfer"
       id="path-effect44-8"
       is_visible="true"
       lpeversion="1"
       nodesatellites_param="F,0,0,1,0,0,0,1 @ F,0,0,1,0,0,0,1 @ F,0,0,1,0,0,0,1 @ F,0,0,1,0,0,0,1 @ F,0,0,1,0,0,0,1"
       radius="0"
       unit="px"
       method="auto"
       mode="F"
       chamfer_steps="1"
       flexible="false"
       use_knot_distance="true"
       apply_no_radius="true"
       apply_with_radius="true"
       only_selected="false"
       hide_knots="false" /><inkscape:path-effect
       effect="fillet_chamfer"
       id="path-effect46-2"
       is_visible="true"
       lpeversion="1"
       nodesatellites_param="F,0,0,1,0,0,0,1 @ F,0,0,1,0,0,0,1 @ F,0,0,1,0,0,0,1 @ F,0,0,1,0,0,0,1 @ F,0,0,1,0,0,0,1"
       radius="0"
       unit="px"
       method="auto"
       mode="F"
       chamfer_steps="1"
       flexible="false"
       use_knot_distance="true"
       apply_no_radius="true"
       apply_with_radius="true"
       only_selected="false"
       hide_knots="false" /><inkscape:path-effect
       effect="fillet_chamfer"
       id="path-effect48-7"
       is_visible="true"
       lpeversion="1"
       nodesatellites_param="F,0,0,1,0,0,0,1 @ F,0,0,1,0,0,0,1 @ F,0,0,1,0,0,0,1 @ F,0,0,1,0,0,0,1 @ F,0,0,1,0,0,0,1"
       radius="0"
       unit="px"
       method="auto"
       mode="F"
       chamfer_steps="1"
       flexible="false"
       use_knot_distance="true"
       apply_no_radius="true"
       apply_with_radius="true"
       only_selected="false"
       hide_knots="false" /></defs><g
     inkscape:label="Ebene 1"
     inkscape:groupmode="layer"
     id="layer1"
     transform="translate(-78.100505,-59.071068)" /><g
     inkscape:groupmode="layer"
     id="layer2"
     inkscape:label="Ebene 2"
     transform="translate(-78.100505,-59.071068)" /><g
     inkscape:groupmode="layer"
     id="layer3"
     inkscape:label="baby"
     transform="translate(-78.100505,-59.071068)"><g
       id="g8"
       transform="translate(-30,-33.132518)"><path
         style="opacity:0.65;fill:#c3483d;fill-opacity:0.5;stroke:#000000;stroke-opacity:1;paint-order:stroke fill markers"
         d="m 104.5,407.75 c 13.88271,2.62646 29.25,11.5 38,33 8.75,21.5 3.75,41 0.25,46.75 -3.5,5.75 -18.75,18.75 -43.75,9 C 70.769464,485.73391 61.166172,454.68443 69.75,427 76,411.25 90.617293,405.12354 104.5,407.75 Z"
         id="path13-1"
         sodipodi:nodetypes="zzzssz"
         transform="matrix(0.77344334,0,0,0.77344334,64.881312,-177.91583)"
         inkscape:original-d="m 104.5,407.75 c 13.88271,2.62646 29.25,11.5 38,33 8.75,21.5 3.75,41 0.25,46.75 -3.5,5.75 -18.75,18.75 -43.75,9 C 70.769464,485.73391 61.166172,454.68443 69.75,427 76,411.25 90.617293,405.12354 104.5,407.75 Z"
         inkscape:path-effect="#path-effect40-1" /><path
         style="opacity:0.65;fill:#b14332;fill-opacity:0.78;stroke:#000000;stroke-width:0.773444;stroke-opacity:1;paint-order:stroke fill markers"
         d="m 153.24721,175.54778 c 0,0 1.93361,-1.06349 3.67386,-2.22365 2.41462,-1.60975 4.4473,-3.57717 4.64066,-6.3809 0.19336,-2.80374 0.29004,-9.47468 -4.83402,-14.69543 -5.12406,-5.22074 -13.3419,-10.63485 -21.46305,-6.09086 -8.12116,4.54398 -12.11928,15.70383 -10.06448,24.70042 2.18319,9.55875 7.74414,22.86634 16.63874,27.12028 8.8946,4.25394 18.65933,0.19336 23.10662,-2.90042 4.44731,-3.09377 4.47425,-8.88348 3.09378,-14.40538 -0.67677,-2.70705 -2.41701,-4.73734 -4.54398,-5.4141 -2.2111,-0.70354 -4.9307,-0.48341 -6.86431,0.58008 -1.44261,0.79344 -2.5137,2.5137 -2.41701,3.9639 0.0967,1.4502 -0.58259,2.52522 -2.03029,2.61037 -1.64357,0.0967 -2.31472,-1.35286 -2.22365,-2.80373 0.10367,-1.65165 1.35352,-2.61037 3.28713,-4.06058 z"
         id="path17-2"
         sodipodi:nodetypes="csssssssssssssc" /><path
         style="opacity:0.5;fill:#ffdb9d;fill-opacity:0.87;stroke:#000000;stroke-width:0.773444;stroke-opacity:1;paint-order:stroke fill markers"
         d="m 147.94281,172.65159 c 0,0 1.91419,-0.41019 2.46109,-3.28145 0.5469,-2.87127 -0.27345,-5.26398 -3.41816,-6.63124 -2.96524,-1.28924 -9.29743,-0.2051 -11.2116,6.35778 -1.91419,6.56289 3.96507,14.5614 7.51996,17.02249 3.55491,2.46108 8.06688,3.82835 11.2116,2.18763 3.14472,-1.64073 3.69162,-3.82836 3.62326,-5.87926 -0.0684,-2.05089 -0.68363,-3.62325 -2.66617,-4.58034 -1.98254,-0.95709 -3.48653,-1.02545 -3.48653,-1.02545 0,0 -0.14435,-1.71669 -1.36727,-2.93963 -0.61527,-0.61527 -2.66618,-1.23053 -2.66618,-1.23053 z"
         id="path18-1"
         sodipodi:nodetypes="cssssssscsc" /></g><g
       id="g7"
       transform="translate(-30,-23.671497)"><path
         style="opacity:0.65;fill:#c3483d;fill-opacity:0.5;stroke:#000000;stroke-width:0.915879;stroke-dasharray:none;stroke-opacity:1;paint-order:stroke fill markers"
         d="m 104.5,407.75 c 13.88271,2.62646 29.25,11.5 38,33 5.88724,14.46579 5.40331,26.70689 3.39042,34.91972 -1.25754,5.13092 -5.79232,12.65351 -9.85361,16.02763 C 128.84181,497.67496 116.34564,503.2648 99,496.5 70.769464,485.73391 61.166172,454.68443 69.75,427 76,411.25 90.617293,405.12354 104.5,407.75 Z"
         id="path19-4"
         sodipodi:nodetypes="zzzssz"
         inkscape:path-effect="#path-effect42-6"
         inkscape:original-d="m 104.5,407.75 c 13.88271,2.62646 29.25,11.5 38,33 8.75,21.5 3.42619,38.08569 -0.0738,43.83569 C 138.92619,490.33569 124,506.25 99,496.5 70.769464,485.73391 61.166172,454.68443 69.75,427 76,411.25 90.617293,405.12354 104.5,407.75 Z"
         transform="matrix(0.98135757,0,0,0.98135757,164.11735,-281.47264)" /><path
         style="opacity:0.65;fill:#b14332;fill-opacity:0.78;stroke:#000000;stroke-width:0.898805;stroke-dasharray:none;stroke-opacity:1;paint-order:stroke fill markers"
         d="m 277.43135,167.12517 c 0,0 1.01806,-0.58355 3.30867,-3.09769 2.47984,-2.72185 5.6428,-4.53879 5.88814,-8.0962 0.24534,-3.55743 0.36801,-12.02163 -6.13348,-18.6458 -6.5015,-6.62416 -16.92842,-13.49366 -27.23267,-7.72819 -10.30426,5.76547 -15.10822,20.67165 -13.3488,31.57051 2.57262,15.93629 10.40472,28.78298 21.69033,34.18045 11.28561,5.39746 23.67525,0.24534 29.31806,-3.6801 5.64281,-3.92543 7.9412,-13.19973 6.62184,-20.30009 -1.00315,-5.39863 -2.96587,-7.54361 -5.90994,-7.54361 -2.94407,0 -9.03396,2.13582 -10.62867,3.48519 -1.5947,1.34936 -1.73784,3.45419 -1.63482,5.29544 0.11732,2.09695 -3.50056,2.20469 -4.04126,-0.20522 -0.48041,-2.14121 0.26256,-3.39465 2.1026,-5.23469 z"
         id="path20-3"
         sodipodi:nodetypes="cssssssssssssc" /><path
         style="opacity:0.5;fill:#ffdb9d;fill-opacity:0.87;stroke:#000000;stroke-width:0.898805;stroke-dasharray:none;stroke-opacity:1;paint-order:stroke fill markers"
         d="m 277.86067,156.35108 c 2.76406,-4.92961 -0.68656,-10.91287 -5.99781,-13.22211 -5.00812,-2.17744 -13.79287,-1.0205 -17.0258,10.06387 -3.23294,11.08433 4.78681,25.2675 10.79085,29.42413 6.00403,4.15662 9.33117,5.87353 15.22819,4.8183 3.10436,-0.55551 5.6472,-4.39791 5.6472,-4.39791 0,0 0.65579,1.83356 2.11635,1.77739 1.46056,-0.0562 5.12035,-2.46386 5.33665,-3.70757 0.2247,-1.29203 -3.03346,0.11235 -3.03346,0.11235 l -2.50958,-2.39532 c 1.64131,-5.67871 0.16133,-12.04148 -5.98702,-11.12361 0,0 -5.54674,-0.18435 -5.39887,-1.59435 0.1892,-1.8041 1.84803,-4.18116 -0.0655,-7.1711 0,0 0.19522,-1.61187 0.89883,-2.58407 z"
         id="path21-0"
         sodipodi:nodetypes="csssscsscccscc" /></g><g
       id="g6"
       transform="translate(-30,-11.758367)"><path
         style="opacity:0.65;fill:#c3483d;fill-opacity:0.5;stroke:#000000;stroke-opacity:1;paint-order:stroke fill markers"
         d="m 104.5,407.75 c 13.88271,2.62646 29.25,11.5 38,33 8.75,21.5 3.75,41 0.25,46.75 -3.5,5.75 -18.75,18.75 -43.75,9 C 70.769464,485.73391 61.166172,454.68443 69.75,427 76,411.25 90.617293,405.12354 104.5,407.75 Z"
         id="path22-6"
         sodipodi:nodetypes="zzzssz"
         inkscape:path-effect="#path-effect44-8"
         inkscape:original-d="m 104.5,407.75 c 13.88271,2.62646 29.25,11.5 38,33 8.75,21.5 3.75,41 0.25,46.75 -3.5,5.75 -18.75,18.75 -43.75,9 C 70.769464,485.73391 61.166172,454.68443 69.75,427 76,411.25 90.617293,405.12354 104.5,407.75 Z"
         transform="matrix(1.2326798,0,0,1.2326798,270.49427,-407.59526)" /><path
         style="opacity:0.65;fill:#b14332;fill-opacity:0.780392;stroke:#000000;stroke-width:0.94819;stroke-dasharray:none;stroke-opacity:1;paint-order:stroke fill markers"
         d="m 413.78761,154.74212 c 4.18953,-3.1183 14.74284,-7.90384 13.87593,-13.50791 -0.86691,-5.60407 -2.28103,-12.35315 -10.14279,-20.20492 -7.86177,-7.85179 -20.47024,-15.99438 -32.93037,-9.16042 -12.46014,6.83396 -18.2692,24.50261 -16.14168,37.42128 3.11089,18.88967 12.58163,34.11716 26.22846,40.5149 13.64681,6.39775 28.62865,0.29081 35.45206,-4.36209 6.82341,-4.65292 9.60267,-15.64596 8.00725,-24.0622 -1.21299,-6.39912 -2.16408,-8.78838 -5.89173,-9.62646 -1.36155,-0.30612 -3.61664,0.52931 -6.64554,1.09246 -3.87594,0.72064 -7.52916,2.28887 -9.29423,3.97247 -1.81289,1.72923 0.63057,3.75221 -2.43082,4.64679 -1.99374,0.5826 -4.25128,-3.62405 -0.0866,-6.7239 z"
         id="path23-3"
         sodipodi:nodetypes="szsssssssssss" /><path
         style="opacity:0.5;fill:#ffdb9d;fill-opacity:0.870588;stroke:#000000;stroke-width:0.94819;stroke-dasharray:none;stroke-opacity:1;paint-order:stroke fill markers"
         d="m 408.28472,140.93972 c 0.78777,-1.61449 3.10517,-11.58418 -5.65183,-14.95733 -7.60375,-2.92894 -16.02138,-1.28184 -20.31933,10.50775 -2.07183,5.68319 1.81297,15.22874 6.86786,19.44504 0.90323,4.90665 2.27874,14.55555 8.48467,20.58423 6.20594,6.02868 13.47478,7.06386 19.12808,6.05224 5.6533,-1.01162 7.42866,-6.69752 7.42866,-6.69752 0,0 2.09385,2.58538 3.92846,2.51482 1.83459,-0.0705 3.94868,-3.1356 4.79542,-4.47628 0.84673,-1.34066 -3.76513,-0.0849 -3.76513,-0.0849 l -2.55966,-3.24579 c 2.06166,-7.13301 0.20266,-15.12527 -7.52027,-13.97234 0,0 -2.75858,-0.0582 -4.44858,-2.19967 -0.73172,-0.92719 -0.0945,-2.20709 -1.50325,-5.3736 -1.23301,-2.77162 -4.44512,-2.42099 -4.44512,-2.42099 0,0 0.21454,-3.46858 -0.41998,-5.67569 z"
         id="path24-3"
         sodipodi:nodetypes="cssczzcsscccsscc" /></g><g
       id="g5"
       transform="translate(-30,-2.4181708)"><path
         style="opacity:0.65;fill:#c3483d;fill-opacity:0.5;stroke:#000000;stroke-width:0.699337;stroke-dasharray:none;stroke-opacity:1;paint-order:stroke fill markers"
         d="m 104.5,407.75 c 13.88271,2.62646 29.25,11.5 38,33 8.75,21.5 3.75,41 0.25,46.75 -3.5,5.75 -18.75,18.75 -43.75,9 C 70.769464,485.73391 61.166172,454.68443 69.75,427 76,411.25 90.617293,405.12354 104.5,407.75 Z"
         id="path25-3"
         sodipodi:nodetypes="zzzssz"
         inkscape:path-effect="#path-effect46-2"
         inkscape:original-d="m 104.5,407.75 c 13.88271,2.62646 29.25,11.5 38,33 8.75,21.5 3.75,41 0.25,46.75 -3.5,5.75 -18.75,18.75 -43.75,9 C 70.769464,485.73391 61.166172,454.68443 69.75,427 76,411.25 90.617293,405.12354 104.5,407.75 Z"
         transform="matrix(1.4299262,0,0,1.4299262,398.33165,-506.40446)" /><path
         style="opacity:0.65;fill:#b14332;fill-opacity:0.780392;stroke:#000000;stroke-width:1;stroke-dasharray:none;stroke-opacity:1;paint-order:stroke fill markers"
         d="m 559.393,155.29793 c 1.3331,-1.68658 3.2434,-10.50797 6.3422,-13.90918 3.3548,-3.68221 11.7337,-4.36617 12.0655,-9.17875 0.332,-4.8126 -1.0021,-15.26325 -9.7975,-24.22462 -8.7954,-8.96139 -22.9013,-18.25466 -36.8412,-10.45495 -13.94,7.79972 -20.4389,27.96527 -18.0587,42.70959 3.4803,21.55912 14.0758,38.93852 29.3434,46.24039 15.2675,7.30186 32.0286,0.3319 39.6624,-4.97855 7.6337,-5.31044 10.7431,-17.85701 8.9582,-27.4626 -1.3571,-7.30345 -5.2498,-12.14979 -9.2326,-12.14979 -3.9828,0 -11.052,1.85087 -13.2094,3.67633 -2.1573,1.82547 -2.3405,7.46535 -7.5851,13.33027 -4.4504,4.9767 -7.702,-0.19407 -5.4234,-1.67034 1.889,-1.22381 2.4432,-0.24122 3.7762,-1.9278 z"
         id="path26-5"
         sodipodi:nodetypes="zssssssssssssz" /><path
         style="opacity:0.5;fill:#ffdb9d;fill-opacity:0.870588;stroke:#000000;stroke-width:1;stroke-dasharray:none;stroke-opacity:1;paint-order:stroke fill markers"
         d="m 549.3685,127.58668 c 2.7136,-6.63539 -1.5672,-12.00594 -6.942,-14.67627 -8.5016,-4.22381 -21.3466,-2.32166 -24.303,10.79595 -1.6982,7.53488 -0.2024,16.26981 6.9008,21.60494 1.2692,6.20867 -0.2148,19.81758 8.9228,28.79642 9.1375,8.97884 19.4703,12.08545 29.879,10.40824 5.4795,-0.88291 10.4389,-8.47476 10.4389,-8.47476 0,0 0.9977,3.09465 3.5757,3.00537 2.578,-0.0892 5.6949,-4.35885 6.8847,-6.05528 1.1899,-1.69642 -4.6041,0.51419 -4.6041,0.51419 l -3.6342,-4.8678 c -4.6159,-13.97555 -6.0548,-18.38985 -11.481,-17.66041 -5.4262,0.72944 -6.9944,5.21781 -8.9565,2.14677 -0.5863,-0.91773 -1.2508,-1.4675 0.096,-3.15495 1.513,-1.89552 1.5677,-3.36913 0.5387,-5.59022 -0.9712,-2.09619 -2.9906,-0.006 -3.754,0.13699 -2.474,0.4648 -0.1178,4.54667 -4.1757,6.43182 -2.0294,0.94283 -3.6364,-3.3681 -4.7121,-4.72911 -1.7181,-2.17358 2.6681,-1.57571 4.8643,-3.75046 2.3897,-2.36646 2.6264,-5.85843 2.949,-7.33349 0.3225,-1.47506 -2.4873,-7.54794 -2.4873,-7.54794 z"
         id="path27-8"
         sodipodi:nodetypes="cssczscsscczssssssszcc" /></g><g
       id="g4"
       transform="translate(-30,-0.27172112)"><path
         style="opacity:0.65;fill:#c3483d;fill-opacity:0.5;stroke:#000000;stroke-width:0.687329;stroke-dasharray:none;stroke-opacity:1;paint-order:stroke fill markers"
         d="m 104.5,407.75 c 13.88271,2.62646 29.25,11.5 38,33 8.75,21.5 3.75,41 0.25,46.75 -3.5,5.75 -18.75,18.75 -43.75,9 C 70.769464,485.73391 61.166172,454.68443 69.75,427 76,411.25 90.617293,405.12354 104.5,407.75 Z"
         id="path28-1"
         sodipodi:nodetypes="zzzssz"
         inkscape:path-effect="#path-effect48-7"
         inkscape:original-d="m 104.5,407.75 c 13.88271,2.62646 29.25,11.5 38,33 8.75,21.5 3.75,41 0.25,46.75 -3.5,5.75 -18.75,18.75 -43.75,9 C 70.769464,485.73391 61.166172,454.68443 69.75,427 76,411.25 90.617293,405.12354 104.5,407.75 Z"
         transform="matrix(1.4164642,0,0,1.4943921,549.5026,-537.79202)" /><path
         style="opacity:0.65;fill:#b14332;fill-opacity:0.780392;stroke:#000000;stroke-width:1;stroke-dasharray:none;stroke-opacity:1;paint-order:stroke fill markers"
         d="m 715.8681,151.25718 c 0,0 5.5204,-10.23502 8.362,-15.86242 2.2931,-4.54111 8.2684,-7.35497 8.5971,-12.38452 0.3288,-5.02956 -2.684,-11.61773 -11.3966,-20.98311 -8.7126,-9.3654 -27.5395,-18.73276 -41.3482,-10.58141 -13.8087,8.15136 -20.9964,31.47604 -18.6386,46.88508 3.4475,22.53108 15.6933,43.94401 30.8171,51.57507 15.1238,7.63105 31.7271,-1.40314 39.289,-6.953 7.5619,-5.54986 10.6419,-20.66207 8.8739,-30.70071 -1.3443,-7.63272 -3.4486,-15.14157 -7.394,-15.14157 -3.9453,0 -11.1706,13.69676 -12.9309,15.95681 -3.5513,4.55941 -11.7638,6.15589 -12.4517,8.53749 -0.9241,3.19919 -3.298,3.21741 -3.3723,-0.29126 -0.092,-4.36282 10.704,-7.89139 11.5932,-10.05645 z"
         id="path29-2"
         sodipodi:nodetypes="cssssssssssssc" /><path
         style="opacity:0.5;fill:#ffdb9d;fill-opacity:0.870588;stroke:#000000;stroke-width:1;stroke-dasharray:none;stroke-opacity:1;paint-order:stroke fill markers"
         d="m 702.1578,128.01258 c 2.5771,-6.64815 -1.3116,-13.08966 -6.4159,-15.76512 -8.0738,-4.23192 -24.5117,-0.41244 -27.3193,12.73036 -1.6128,7.54935 3.3401,16.68548 10.0858,22.03086 1.2054,6.22059 -0.9111,19.48432 7.7666,28.48041 8.6777,8.99607 16.3306,11.54396 26.0773,9.1908 7.325,-1.7685 4.9265,-17.76055 7.0296,-16.07467 2.103,1.68588 4.1295,10.17166 6.5778,10.0822 2.4482,-0.0894 5.4082,-4.36721 6.5382,-6.0669 1.1299,-1.69968 -5.2741,1.22229 -5.2741,1.22229 l -1.4584,-4.8758 c -1.8449,-9.75025 -5.1311,-17.73185 -7.5342,-19.126 -2.4031,-1.39415 -5.6063,1.9985 -10.7869,4.95526 0.047,-1.36446 2.0669,-8.60715 1.2776,-10.51169 -0.1944,-0.46925 -1.3267,-3.04989 -2.3402,-2.27196 -0.5826,0.44726 -0.8108,2.07481 -1.2443,2.30686 -1.8248,0.9768 -1.7613,-1.24202 -2.3297,0.43189 -0.6157,1.8131 0.4213,4.42262 -1.851,5.53631 -1.9273,0.94463 -5.4972,-2.25101 -6.5189,-3.61463 -1.6315,-2.17775 3.4836,-1.32825 5.5693,-3.50718 2.2694,-2.37101 3.0309,-6.07104 3.2754,-8.47474 0.2444,-2.4037 -1.1247,-6.67855 -1.1247,-6.67855 z"
         id="path30-0"
         sodipodi:nodetypes="cssczszsscczcssssssszc" /></g><g
       id="g3"
       transform="translate(-30,-0.79071696)"><path
         style="opacity:0.65;fill:#c3483d;fill-opacity:0.5;stroke:#000000;stroke-width:0.999999;stroke-linejoin:round;stroke-dasharray:none;stroke-dashoffset:0;stroke-opacity:1;paint-order:stroke fill markers"
         d="m 849.0232,72.54636 c 19.6643,3.92496 41.4315,17.18551 53.8256,49.31494 12.3941,32.12943 4.0617,54.27009 -0.8959,62.86284 -4.9576,8.59276 -25.3087,35.01984 -60.7203,20.44952 C 801.2451,189.0849 787.6423,142.6848 799.801,101.31341 808.6539,77.77673 829.3588,68.6214 849.0232,72.54636 Z"
         id="path31-9"
         sodipodi:nodetypes="zzzssz" /><path
         style="opacity:0.65;fill:#b14332;fill-opacity:0.780392;stroke:#000000;stroke-width:1;stroke-linejoin:round;stroke-dasharray:none;stroke-dashoffset:0;stroke-opacity:1;paint-order:stroke fill markers"
         d="m 867.7295,156.7823 c 2.8311,-3.20385 3.7182,-4.2806 5.5663,-7.85822 2.2958,-4.44419 0.1198,-9.94859 2.472,-15.80965 1.7501,-4.3609 5.579,-6.72629 5.9078,-11.75584 0.3288,-5.02956 -0.032,-8.96608 -8.745,-18.33146 -8.7126,-9.3654 -28.0395,-19.73276 -41.8482,-11.58141 -13.8087,8.15136 -22.7464,33.97604 -20.3886,49.38508 3.4475,22.53108 17.6933,41.19401 32.8171,48.82507 15.1238,7.63105 31.2271,0.34686 38.789,-5.203 7.5619,-5.54986 11.3919,-21.16207 9.6239,-31.20071 -1.3443,-7.63272 -4.4209,-13.63897 -8.3662,-13.63897 -3.9454,0 -3.907,10.81117 -6.0441,12.71893 -2.137,1.90776 -9.36851,7.45221 -11.2194,10.41922 -2.289,3.66932 -4.1563,5.19704 -4.83094,4.21394 -0.67809,-0.98812 0.0762,-1.6659 0.89404,-3.0759 1.5564,-2.68357 3.5163,-5.00677 5.3723,-7.10708 z"
         id="path32-2"
         sodipodi:nodetypes="ssssssssssssssss" /><path
         style="opacity:0.5;fill:#ffdb9d;fill-opacity:0.870588;stroke:#000000;stroke-width:1;stroke-linejoin:round;stroke-dasharray:none;stroke-dashoffset:0;stroke-opacity:1;paint-order:stroke fill markers"
         d="m 855.4204,132.2537 c 2.577,-6.64815 -4.4884,-16.154 -9.5927,-18.82946 -8.0738,-4.23192 -26.2476,0.99289 -29.0552,14.13569 -1.6128,7.54935 2.2402,16.85337 8.9859,22.19875 1.2054,6.22059 1.0889,20.10932 9.7666,29.10541 8.6777,8.99607 25.2661,13.42465 33.5773,7.8158 6.325,-4.2685 7.9783,-15.76509 9.1546,-18.07467 1.1762,-2.30958 8.8795,-2.57834 11.3278,-2.6678 2.4482,-0.0895 0.2099,-12.69603 -0.4618,-12.3169 -1.7214,0.9716 1.2153,3.9866 -1.3688,6.03035 -2.5841,2.04375 -10.0288,-1.02657 -13.5833,-0.1258 -3.5545,0.90076 -3.1108,1.98521 -8.2639,2.71606 -1.2176,0.17268 -4.5824,1.7955 -3.6523,-2.27397 1.1136,-4.87218 2.2387,-2.44514 2.8914,-6.90189 0.3113,-2.12606 -0.1201,-3.19385 -0.875,-4.44418 -0.7562,-1.25255 -3.2821,4.57398 -3.2895,3.62543 -0.016,-2.03206 -1.4922,-2.1285 -1.5524,-1.28235 -0.1277,1.79665 -0.015,2.49313 -3.0292,6.51799 -2.4976,0.23985 -8.9246,-3.55523 -7.9978,-3.99462 3.1707,-1.5033 5.244,-1.78848 7.0006,-4.51321 1.8218,-2.82585 2.1161,-4.81494 2.102,-8.18225 -0.015,-3.64407 -2.0843,-8.53838 -2.0843,-8.53838 z"
         id="path33-7"
         sodipodi:nodetypes="cssczszsszzsssssscsssc" /></g><g
       id="g2"
       transform="translate(-30,2.0161057)"><path
         style="opacity:0.65;fill:#c44a3d;fill-opacity:0.5;stroke:#000000;stroke-width:1.02189;stroke-linejoin:round;stroke-dasharray:none;stroke-dashoffset:0;stroke-opacity:1;paint-order:stroke fill markers"
         d="m 999.0047,67.57601 c 20.0271,4.02442 42.1959,17.621 54.8185,50.56462 12.6228,32.94363 4.1368,62.17058 -0.9124,70.98108 -5.049,8.81051 -25.7755,29.38205 -61.8403,14.4425 -40.7252,-16.49646 -54.5788,-64.07239 -42.1958,-106.49217 9.0162,-24.13312 30.103,-33.52046 50.13,-29.49603 z"
         id="path34-9"
         sodipodi:nodetypes="zzzssz" /><path
         style="opacity:0.65;fill:#b14332;fill-opacity:0.780392;stroke:#000000;stroke-width:1.01217;stroke-linejoin:round;stroke-dasharray:none;stroke-dashoffset:0;stroke-opacity:1;paint-order:stroke fill markers"
         d="m 990.08781,119.87251 c 4.67039,-0.79994 19.02639,5.72394 28.59389,6.62968 9.5675,0.90574 10.9016,-7.11357 10.6193,-12.17569 -0.5653,-10.13406 0.9973,-9.26688 -7.8769,-18.68685 -8.8743,-9.41999 -29.4292,-20.66087 -43.4941,-12.46199 -14.065,8.19888 -20.7356,28.39058 -21.2147,45.70202 -0.6345,22.92762 16.2392,50.48662 31.6437,58.16216 15.4044,7.67554 34.8005,7.33733 42.5028,1.75511 7.7022,-5.58221 17.3259,-23.41526 15.525,-33.51242 -0.645,-3.6163 -3.5027,-17.28947 -10.5116,-21.83076 -4.6908,-3.03937 -14.262,-1.18427 -19.6933,-1.70452 -5.4313,-0.52024 -25.49447,-12.15174 -26.80499,-6.4808 -0.59258,2.56422 1.4631,1.52944 0.9153,2.98585 -0.4586,1.21905 -0.7702,2.21146 -3.1004,0.16877 -3.324,-2.91389 -1.77444,-7.75061 2.896,-8.55056 z"
         id="path35-1"
         sodipodi:nodetypes="zzsssssssszsssz" /><path
         style="opacity:0.5;fill:#ffdb9d;fill-opacity:0.870588;stroke:#000000;stroke-width:0.961351;stroke-linejoin:round;stroke-dasharray:none;stroke-dashoffset:0;stroke-opacity:1;paint-order:stroke fill markers"
         d="m 1021.2324,150.54072 c 6.6693,1.23779 12.4546,16.49664 11.942,22.05928 -0.4253,4.61483 -4.598,11.85626 -11.4206,15.20758 -6.1852,3.03828 -14.777,2.52978 -20.4805,0.46944 -6.88961,-2.48885 -15.05278,-18.28284 -15.82555,-26.54967 -4.35798,-4.14064 -8.99204,-5.92526 -13.99136,-10.86838 -4.99937,-4.94304 -10.9665,-13.50126 -4.32038,-16.7983 2.41255,-1.19684 -6.96272,-1.83504 -6.85254,-5.65676 -0.2644,-9.01899 5.75237,-17.85244 7.09842,-19.82615 1.34599,-1.97362 1.82015,-3.66312 4.08885,-6.5078 2.26877,-2.84475 4.89748,-1.85569 5.63026,-0.20877 l -2.65213,3.48176 c 3.35025,-0.6861 5.01725,-1.96292 7.36663,-4.88415 0.55797,-0.693777 -4.97468,0.26152 -4.03554,-1.202626 0.93052,-1.450651 -0.13119,-2.3611 1.25833,-3.287162 1.34754,-0.898074 6.03357,0.07158 7.56525,1.1112 3.4671,2.353338 8.73924,4.896288 11.83124,5.477948 7.77572,1.46283 4.50852,11.62529 6.32362,12.2513 3.5786,1.23392 5.6555,6.38076 5.3952,9.90796 -0.2605,3.52726 -0.25,15.06466 -0.25,15.06466 3.2129,-0.0728 5.0225,1.60265 7.5085,3.60543 1.8536,1.49339 3.8203,7.15323 3.8203,7.15323 z"
         id="path36-4"
         sodipodi:nodetypes="csssczscszccsssssszcsc" /></g><g
       id="g1"
       transform="translate(-30,4.9405529)"><path
         style="opacity:0.65;fill:#c44a3d;fill-opacity:0.5;stroke:#000000;stroke-width:1.04485;stroke-linejoin:round;stroke-dasharray:none;stroke-dashoffset:0;stroke-opacity:1;paint-order:stroke fill markers"
         d="m 1203.0996,186.422 c 10.9109,-17.98055 16.1431,-44.1451 0.2507,-76.30341 -15.8924,-32.158384 -42.6348,-45.775517 -52.7429,-47.971343 -10.1079,-2.195973 -40.9668,-0.478245 -54.8552,37.169769 -15.9628,42.257124 10.0308,85.372764 50.4053,105.011984 24.3402,9.67452 46.031,0.0738 56.9421,-17.907 z"
         id="path37-7"
         sodipodi:nodetypes="zzzssz" /><path
         style="opacity:0.65;fill:#b14332;fill-opacity:0.780392;stroke:#000000;stroke-width:1.06724;stroke-linejoin:round;stroke-dasharray:none;stroke-dashoffset:0;stroke-opacity:1;paint-order:stroke fill markers"
         d="m 1153.1092,116.04598 c 3.7069,-2.35243 7.574,-6.77448 13.4037,-7.18825 5.8296,-0.41383 6.1819,1.04739 11.1744,4.45519 4.9925,3.40787 9.9694,5.94845 13.4189,10.03072 3.8292,4.53187 6.459,12.32444 7.4685,25.93264 1.0096,13.60806 -6.5684,36.8984 -21.6504,43.54691 -15.7102,6.92531 -37.8964,-1.05394 -48.2416,-13.9487 -15.127,-18.85462 -27.708,-48.55444 -22.7122,-66.00402 4.9958,-17.449659 18.4935,-34.117556 28.25,-36.458962 13.889,-3.333228 30.9483,6.662429 38.2888,14.599478 5.9955,6.482604 13.702,16.236354 9.6788,15.091514 -2.9149,-0.82945 -6.5856,-4.25397 -11.7754,-4.12892 -5.8917,0.14175 -9.4739,1.69376 -11.467,4.11203 -1.9556,2.37272 -7.089,7.70487 -10.634,6.58889 -2.6461,-0.8333 -0.053,-2.14057 -1.5762,-2.75026 -1.2748,-0.51025 -2.2684,-0.97373 -2.3383,2.29296 -0.1,4.66007 5.0051,6.18121 8.712,3.82878 z"
         id="path38-2"
         sodipodi:nodetypes="zzzsssssssssssssz" /><path
         style="opacity:0.5;fill:#ffdb9d;fill-opacity:0.870588;stroke:#000000;stroke-width:1.04485;stroke-linejoin:round;paint-order:stroke fill markers"
         d="m 1180.7746,178.85658 c -3.9242,5.64198 -13.0261,12.66006 -22.4858,11.16844 -9.4597,-1.49171 -17.2426,-8.48932 -21.4495,-15.67313 -4.2067,-7.18371 -6.3439,-17.01285 -6.5993,-18.69758 -0.2548,-1.68488 -0.9006,-2.73873 -1.9756,-2.74955 -1.0748,-0.0108 -4.7592,-0.87306 -6.6561,-2.70127 -1.897,-1.82821 -6.0438,-8.93433 -6.6543,-15.63751 -0.6102,-6.7033 -2.3126,-18.36599 5.457,-30.57126 7.7692,-12.20501 9.0534,-12.068049 13.6748,-12.510329 2.9525,-0.282643 4.9185,0.407906 7.0375,1.39615 1.6189,0.755043 5.1841,2.613035 3.4625,-0.197402 -1.7219,-2.810336 -3.0311,-4.098439 -2.8759,-5.747245 0.1552,-1.648964 2.8517,-1.968127 4.0241,-2.115018 1.1723,-0.146947 4.1699,-0.442872 5.8484,0.309425 2.1537,0.96532 2.5733,1.775368 2.5733,1.775368 0,0 -1.1277,1.165649 -2.105,0.997109 -0.9772,-0.16845 -2.5726,0.08168 -3.1583,1.027958 -0.5856,0.946348 2.7022,3.379387 3.6405,3.960144 0.9385,0.580734 1.5332,-0.436024 2.8019,-2.486271 1.269,-2.050372 0.1835,-2.812111 2.8495,-2.563462 1.2239,0.114143 4.5962,1.24869 6.0039,2.119792 1.4077,0.871174 3.5293,2.511233 3.0413,3.299844 -0.4882,0.788632 -1.349,0.430364 -1.9935,0.07509 -1.6129,-0.888811 -4.4075,-1.091789 -4.8955,-0.303179 -0.4881,0.788687 -1.1914,1.225957 -1.0725,3.480671 0.079,1.489234 1.9509,5.122005 2.4376,6.197905 0.685,1.51455 2.8011,5.90604 2.4774,7.53133 -0.6104,3.06483 -4.4341,3.1454 -4.1013,4.00575 0.333,0.86029 3.1977,3.39646 4.449,4.17085 1.2515,0.77434 2.6403,2.72436 3.306,4.44503 0.6657,1.72061 0.6681,5.2122 -0.5231,6.43793 -1.1914,1.22589 -2.4813,0.86383 -2.7166,-0.15423 -0.2351,-1.01804 0.1165,-1.23674 -0.3144,-1.93918 -0.4304,-0.70269 -1.135,-2.01111 -1.3689,-1.28343 -0.2341,0.72765 -0.7997,2.34074 -1.4253,1.95353 -0.6256,-0.38714 -0.7832,-2.22963 -1.5464,-3.79259 -0.7634,-1.56293 -1.9759,-2.7495 -2.992,-2.5057 -1.016,0.24361 -5.1202,-0.11502 -5.667,0.41904 -0.5469,0.53408 1.7773,2.52686 2.5626,3.54894 1.4376,1.87113 0.2618,4.03362 1.7083,4.49247 1.4465,0.45897 3.2288,-0.64842 6.3077,0.46818 3.044,1.1039 5.2248,3.01389 6.4914,4.45325 1.2694,1.4427 1.3901,3.69573 3.0518,4.50602 1.6616,0.8103 9.2869,5.96521 11.6744,10.49646 2.0693,3.92736 5.4605,11.44941 3.2183,18.56824 -2.6653,8.46136 -5.5233,10.32347 -5.5233,10.32347 z"
         id="path39-1"
         sodipodi:nodetypes="cssssssssssssscsssssssssssssssssssssssssssssscc" /></g></g></svg>
